<svg width="2659" height="1094" viewBox="0 0 2659 1094" fill="none" xmlns="http://www.w3.org/2000/svg">
<path d="M431 128C434.455 128.256 435.274 129.286 437.75 131.875C440 135 440 135 440 138C441.98 138.99 441.98 138.99 444 140C444 140.99 444 141.98 444 143C444.959 143.371 444.959 143.371 445.937 143.75C448.544 145.33 448.292 146.168 449 149C449.66 149.33 450.32 149.66 451 150C451.66 150.33 452.32 150.66 453 151C453.333 152.333 453.667 153.667 454 155C454.66 155.33 455.32 155.66 456 156C456.66 156.33 457.32 156.66 458 157C458.333 158.333 458.667 159.667 459 161C459.639 161.309 460.279 161.619 460.937 161.938C463.755 163.389 463.851 165.129 465 168C465.66 168.33 466.32 168.66 467 169C469.784 170.392 469.979 172.156 471 175C471.66 175.33 472.32 175.66 473 176C476.295 179.122 479.322 182.33 482 186C482 186.66 482 187.32 482 188C483.32 188.66 484.64 189.32 486 190C486 190.99 486 191.98 486 193C486.619 193.248 487.237 193.495 487.875 193.75C490 195 490 195 490.906 196.887C492.481 199.929 494.863 201.476 497.539 203.535C499 205 499 205 499 208C499.552 208.218 500.103 208.436 500.672 208.66C503.793 210.457 505.832 212.776 508.25 215.438C509.142 216.406 510.034 217.374 510.953 218.371C513 221 513 221 513 224C513.598 224.268 514.196 224.536 514.812 224.812C517.018 226.01 518.436 227.045 520 229C520 229.99 520 230.98 520 232C520.866 232.371 520.866 232.371 521.75 232.75C524.349 234.194 526.078 235.735 528 238C528 238.99 528 239.98 528 241C528.835 241.309 528.835 241.309 529.687 241.625C532.97 243.577 534.707 245.942 537 249C537 249.66 537 250.32 537 251C537.835 251.309 537.835 251.309 538.687 251.625C541.97 253.577 543.707 255.942 546 259C546 259.66 546 260.32 546 261C546.583 261.248 547.165 261.495 547.766 261.75C550.331 263.185 551.837 264.777 553.75 267C554.364 267.701 554.977 268.402 555.609 269.125C557 271 557 271 557 273C557.57 273.233 558.139 273.467 558.727 273.707C561.536 275.305 563.217 277.283 565.375 279.688C571.125 285.592 577.364 289.001 585 292C585.99 292 586.98 292 588 292C588 292.66 588 293.32 588 294C588.99 293.67 589.98 293.34 591 293C593.693 292.822 596.294 292.913 599 293C599.33 293.33 599.66 293.66 600 294C602.333 294.047 604.667 294.038 607 294C609.333 293.962 611.667 293.953 614 294C614.33 294.33 614.66 294.66 615 295C616.999 295.046 619 295.038 621 295C623 294.962 625 294.954 627 295C627.33 295.33 627.66 295.66 628 296C630.753 296.101 633.481 296.14 636.234 296.133C637.064 296.134 637.895 296.135 638.75 296.136C640.512 296.136 642.274 296.135 644.036 296.13C646.725 296.125 649.413 296.13 652.102 296.137C653.812 296.136 655.523 296.135 657.234 296.133C658.037 296.135 658.839 296.137 659.665 296.139C663.59 296.123 667.163 295.916 671 295C672.176 294.856 673.351 294.711 674.562 294.562C677.587 294.068 679.394 293.489 682 292C682.99 291.67 683.98 291.34 685 291C687.052 290.021 689.093 289.019 691.125 288C692.738 287.196 692.738 287.196 694.383 286.375C696.86 285.239 696.86 285.239 698 284C698.66 283.876 699.32 283.752 700 283.625C700.66 283.419 701.32 283.213 702 283C702.33 282.01 702.66 281.02 703 280C704.331 279.66 705.665 279.327 707 279C708.585 277.525 708.585 277.525 709.937 275.688C712.374 272.677 714.889 270.333 718 268C718.66 267.34 719.32 266.68 720 266C720 265.01 720 264.02 720 263C720.619 262.752 721.237 262.505 721.875 262.25C724.396 260.767 724.785 259.591 726 257C727.485 256.01 727.485 256.01 729 255C729 254.01 729 253.02 729 252C730.32 251.34 731.64 250.68 733 250C733 249.01 733 248.02 733 247C734.32 246.34 735.64 245.68 737 245C737 244.01 737 243.02 737 242C738.32 241.34 739.64 240.68 741 240C741 239.01 741 238.02 741 237C741.639 236.752 742.279 236.505 742.937 236.25C745.196 235.212 745.196 235.212 745.5 233C745.665 232.34 745.83 231.68 746 231C746.577 230.732 747.155 230.464 747.75 230.188C750.747 228.605 752.001 226.439 753.852 223.656C755.673 221.029 757.982 219.189 760.437 217.188C763.345 214.72 765.206 212.399 767 209C768.747 207.253 770.526 205.745 772.437 204.188C775.345 201.72 777.206 199.399 779 196C781 194 781 194 783.875 191.75C786.945 189.226 788.897 186.379 791 183C793 181 793 181 795.312 179.312C798.071 176.939 799.877 174.584 801.887 171.586C803.456 169.351 805.178 167.869 807.375 166.25C810.262 163.776 811.981 161.203 814 158C816 156 816 156 818.375 154.25C821.262 151.776 822.981 149.203 825 146C827 144 827 144 829.875 141.75C832.945 139.226 834.897 136.379 837 133C837.66 132.34 838.32 131.68 839 131C840.338 133.456 841.671 135.914 843 138.375C843.572 139.423 843.572 139.423 844.156 140.492C847 145.773 847 145.773 847 148C847.66 148.33 848.32 148.66 849 149C849.693 150.991 850.357 152.992 851 155C851.66 155.99 852.32 156.98 853 158C853.215 159.323 853.215 159.323 853.434 160.672C854.133 164.781 855.538 168.386 857.062 172.25C860 179.752 860 179.752 860 182C860.66 182.33 861.32 182.66 862 183C862.894 186.077 863.539 189.181 864.219 192.312C864.605 193.643 864.605 193.643 865 195C865.66 195.33 866.32 195.66 867 196C867.374 197.658 867.699 199.327 868 201C869.352 204.965 870.909 208.85 872.437 212.75C872.845 213.816 873.253 214.882 873.674 215.98C874.069 216.992 874.464 218.004 874.871 219.047C875.231 219.973 875.591 220.9 875.963 221.854C876.807 224.158 876.807 224.158 879 225C879 226.98 879 228.96 879 231C879.66 231.33 880.32 231.66 881 232C882 235 882 235 882.437 237.125C882.623 237.744 882.809 238.363 883 239C883.66 239.33 884.32 239.66 885 240C885.355 241.996 885.686 243.997 886 246C886.661 247.336 887.328 248.669 888 250C888.533 251.615 889.032 253.241 889.5 254.875C889.756 255.748 890.013 256.62 890.277 257.52C890.516 258.338 890.754 259.157 891 260C891.602 262.02 892.243 264.032 893 266C893.66 266.33 894.32 266.66 895 267C895 268.32 895 269.64 895 271C895.66 271.33 896.32 271.66 897 272C897.365 273.66 897.691 275.329 898 277C899.446 281.137 901.059 285.208 902.665 289.285C903.439 291.255 904.201 293.229 904.963 295.203C905.452 296.453 905.943 297.703 906.434 298.953C907.1 300.657 907.1 300.657 907.779 302.396C908.729 305.123 908.729 305.123 911 306C911.562 308.312 911.562 308.312 912 311C912.379 313.187 912.379 313.187 913 315C913.66 315.33 914.32 315.66 915 316C915.369 317.994 915.696 319.995 916 322C917.318 326.163 918.894 330.228 920.437 334.312C920.845 335.422 921.253 336.531 921.674 337.674C922.069 338.726 922.464 339.779 922.871 340.863C923.231 341.825 923.591 342.787 923.963 343.779C924.792 346.155 924.792 346.155 927 347C927.333 349.333 927.667 351.667 928 354C928.66 354.33 929.32 354.66 930 355C930.49 356.699 930.49 356.699 930.871 358.91C931.78 363.412 933.264 367.448 934.971 371.702C939.404 382.812 943.79 396.013 940 408C939.835 408.846 939.67 409.691 939.5 410.562C939 413 939 413 938 416C935.705 425.281 934.396 433.324 939 442C939.66 442.66 940.32 443.32 941 444C941.165 445.011 941.33 446.021 941.5 447.062C941.665 448.032 941.83 449.001 942 450C942.66 450.33 943.32 450.66 944 451C944.667 453.333 945.333 455.667 946 458C946.66 458.33 947.32 458.66 948 459C948.144 459.887 948.289 460.774 948.437 461.688C949.047 465.279 950.324 467.788 952 471C952.143 471.603 952.286 472.207 952.434 472.828C953.418 476.604 955.277 480.022 956.941 483.539C958 486 958 486 958 488C958.66 488.33 959.32 488.66 960 489C961 492 961 492 961.424 493.851C962.708 498.641 964.967 503.148 966.937 507.688C967.621 509.293 967.621 509.293 968.318 510.932C968.759 511.948 969.199 512.964 969.652 514.012C970.054 514.945 970.456 515.877 970.871 516.839C971.809 519.149 971.809 519.149 974 520C974.186 521.268 974.186 521.268 974.375 522.562C975.044 526.243 976.288 528.821 978.062 532.07C979 534 979 534 979.5 536.18C979.665 536.78 979.83 537.381 980 538C980.66 538.33 981.32 538.66 982 539C982.527 540.855 982.527 540.855 982.937 543.188C983.734 547.191 985.062 550.388 987 554C987 554.66 987 555.32 987 556C987.66 556.33 988.32 556.66 989 557C989.341 558.665 989.674 560.332 990 562C990.66 562.66 991.32 563.32 992 564C992.711 565.823 992.711 565.823 993.375 568.02C994.974 573.038 996.934 577.846 999 582.688C999.343 583.503 999.686 584.318 1000.04 585.158C1001.89 589.521 1003.88 593.763 1006 598C1006.16 598.722 1006.33 599.444 1006.5 600.188C1006.86 602.115 1006.86 602.115 1008.5 603.375C1010 605 1010 605 1010.44 607.714C1011.03 611.197 1012.09 613.968 1013.5 617.203C1014 618.348 1014.49 619.492 1015 620.672C1015.51 621.853 1016.03 623.033 1016.56 624.25C1017.59 626.608 1018.61 628.967 1019.63 631.328C1020.08 632.369 1020.54 633.409 1021.01 634.481C1022 637 1022 637 1022 639C1022.66 639.33 1023.32 639.66 1024 640C1024.61 641.723 1024.61 641.723 1025.19 644.062C1026.8 649.849 1029.18 655.189 1031.66 660.641C1034 665.809 1034 665.809 1034 668C1034.66 668.33 1035.32 668.66 1036 669C1036.89 671.553 1037.54 674.136 1038.22 676.75C1038.77 679.175 1038.77 679.175 1041 680C1041.39 682.063 1041.51 684.094 1041.66 686.188C1041.77 686.786 1041.88 687.384 1042 688C1042.66 688.33 1043.32 688.66 1044 689C1044.75 690.863 1044.75 690.863 1045.44 693.312C1045.82 694.649 1045.82 694.649 1046.2 696.012C1047.53 700.993 1048.79 705.99 1050 711C1049.16 711.141 1049.16 711.141 1048.31 711.285C1045.41 712.182 1043.45 713.644 1041 715.438C1038.07 717.58 1035.26 719.404 1032 721C1031.29 721.743 1031.29 721.743 1030.56 722.5C1028.57 724.416 1026.58 725.054 1024 726C1021.74 727.058 1019.64 728.216 1017.5 729.5C1015.37 730.781 1013.22 731.888 1011 733C1010.17 733.495 1009.35 733.99 1008.5 734.5C1006.36 735.782 1004.23 736.889 1002 738C1000.75 738.689 999.495 739.387 998.25 740.094C997.559 740.484 996.868 740.875 996.156 741.277C995.445 741.681 994.733 742.084 994 742.5C992.584 743.303 991.167 744.105 989.75 744.906C989.126 745.26 988.502 745.614 987.859 745.979C985.93 747.038 983.972 748.023 982 749C977.192 751.56 977.192 751.56 973 755C972.34 755 971.68 755 971 755C970.35 755.712 970.35 755.712 969.687 756.438C968 758 968 758 965.723 758.414C962.599 759.086 960.468 760.273 957.75 761.938C956.879 762.462 956.007 762.987 955.109 763.527C952.886 764.83 952.886 764.83 952 767C950.672 767.354 949.338 767.685 948 768C947.01 768.66 946.02 769.32 945 770C943.338 770.677 941.67 771.343 940 772C936.149 773.862 932.36 775.844 928.562 777.812C927.538 778.334 926.514 778.855 925.459 779.393C919.196 782.614 919.196 782.614 913.59 786.824C910.775 789.189 909.52 789.397 906 790C903.4 791.314 900.895 792.672 898.375 794.125C896.784 795.028 895.193 795.93 893.602 796.832C892.723 797.332 891.844 797.831 890.938 798.346C887.648 800.198 884.337 802.014 881.023 803.824C879.202 804.823 877.38 805.822 875.559 806.822C874.362 807.477 873.165 808.13 871.966 808.782C865.827 812.12 860.239 815.376 855 820C853.989 820.33 852.979 820.66 851.937 821C845.475 823.2 842.439 829.179 839.25 834.812C838.822 835.554 838.395 836.296 837.954 837.061C836.628 839.369 835.313 841.684 834 844C833.176 845.44 832.352 846.88 831.527 848.32C827.467 855.446 823.565 862.611 820 870C818.477 873.103 816.79 876.042 815 879C814.67 879.66 814.34 880.32 814 881C813.34 881.99 812.68 882.98 812 884C811.67 884.66 811.34 885.32 811 886C810.484 886.474 809.969 886.949 809.437 887.438C807.661 889.014 807.661 889.014 808 892C806.864 893.136 805.679 894.222 804.5 895.312C802.025 897.974 801.79 898.725 801 902C798.937 903.25 798.937 903.25 797 904C797 904.99 797 905.98 797 907C794.476 910.064 792.768 911.09 789 912C788.67 912.99 788.34 913.98 788 915C787.01 915 786.02 915 785 915C784.67 915.99 784.34 916.98 784 918C783.01 918 782.02 918 781 918C779.237 918.879 779.237 918.879 777.461 920.117C776.798 920.559 776.136 921.001 775.453 921.457C774.767 921.925 774.082 922.393 773.375 922.875C772.681 923.335 771.988 923.795 771.273 924.27C767.544 926.586 767.544 926.586 765 930C764.134 930.186 764.134 930.186 763.25 930.375C760.809 930.891 760.809 930.891 758.625 932.938C755.758 935.19 753.445 935.871 750 937C748.132 937.877 746.283 938.796 744.453 939.75C743.444 940.276 742.434 940.802 741.394 941.344C740.357 941.89 739.319 942.437 738.25 943C737.197 943.547 736.144 944.093 735.059 944.656C729.669 947.322 729.669 947.322 725 951C722.875 950.625 722.875 950.625 721 950C719.305 944.064 720.986 939.539 722.812 933.875C723.086 932.982 723.36 932.088 723.643 931.168C725.688 924.605 725.688 924.605 727.065 921.934C728.206 919.824 728.206 919.824 728.5 916.5C728.955 913.316 729.611 911.779 731 909C731.165 907.783 731.33 906.566 731.5 905.312C731.665 904.219 731.83 903.126 732 902C732.66 901.67 733.32 901.34 734 901C734.342 899.043 734.342 899.043 734.41 896.68C734.91 890.535 736.576 884.98 738.437 879.125C738.75 878.107 739.063 877.088 739.385 876.039C741.713 868.557 741.713 868.557 743.074 865.914C744.222 863.793 744.222 863.793 744.5 860.312C744.665 859.219 744.83 858.126 745 857C745.66 856.67 746.32 856.34 747 856C747.431 854.009 747.431 854.009 747.562 851.688C747.874 847.842 748.243 844.485 750.012 841.016C751.064 838.87 751.438 837.104 751.812 834.75C752.713 829.924 754.037 825.304 755.5 820.625C755.714 819.935 755.927 819.245 756.148 818.534C756.99 815.881 757.836 813.324 759.094 810.836C760.207 808.581 760.577 806.474 761 804C761.579 800.609 762.428 798.045 764 795C764.85 792.082 765.375 789.11 765.937 786.125C766.693 782.291 767.684 778.685 769 775C769.165 774.299 769.33 773.598 769.5 772.875C770.07 770.738 770.987 768.962 772 767C772.894 764.317 773.46 761.769 774 759C774.626 756.047 775.617 753.679 777 751C778.104 747.687 778.91 744.391 779.691 740.988C782.745 728.102 786.866 715.575 791 703C791.33 703.66 791.66 704.32 792 705C792.66 705 793.32 705 794 705C796.03 707.923 797.325 710.515 798 714C798.389 716.143 798.389 716.143 799 718C799.66 718.33 800.32 718.66 801 719C801.667 721.333 802.333 723.667 803 726C803.66 726.33 804.32 726.66 805 727C805.455 729.113 805.906 731.226 806.335 733.344C807.526 738.1 809.619 742.478 811.625 746.938C812.454 748.799 813.279 750.663 814.102 752.527C814.466 753.339 814.83 754.151 815.206 754.988C816 757 816 757 816 759C816.66 759 817.32 759 818 759C818.33 759.33 818.66 759.66 819 760C821.057 759.078 822.698 758.331 824.23 756.652C826.716 754.332 829.5 752.963 832.5 751.375C833.645 750.764 834.789 750.153 835.969 749.523C839 748 839 748 842 747C842.619 746.505 843.237 746.01 843.875 745.5C846.27 743.81 848.124 743.399 851 743C851 742.34 851 741.68 851 741C851.887 740.752 852.774 740.505 853.687 740.25C857.038 739.18 857.038 739.18 859.5 737C862.26 734.792 864.67 734.086 868 733C868.495 732.505 868.99 732.01 869.5 731.5C871 730 871 730 873.875 729.062C877.09 728.168 877.09 728.168 879.562 725.938C882 724 882 724 884.562 723.5C887.121 723.214 887.121 723.214 888.742 721.199C891.447 718.565 894.223 717.064 897.562 715.312C898.698 714.711 899.834 714.109 901.004 713.488C904 712 904 712 907 711C907.598 710.526 908.196 710.051 908.812 709.562C911 708 911 708 914.062 707C916.969 706.252 916.969 706.252 918.5 704.5C920.652 702.348 923.137 701.914 926 701C926.66 700.34 927.32 699.68 928 699C925.542 694.5 922.44 690.877 919.062 687.062C917.893 685.727 916.724 684.391 915.555 683.055C914.667 682.043 914.667 682.043 913.761 681.011C892 656.16 892 656.16 892 653C893.969 651.255 895.929 649.612 898 648C898.701 647.443 899.402 646.886 900.125 646.312C902.018 644.987 903.923 644.005 906 643C906.99 642.34 907.98 641.68 909 641C913 638.333 917 635.667 921 633C921.66 632.34 922.32 631.68 923 631C924 630 924 630 927 629C927.66 628.34 928.32 627.68 929 627C930 626 930 626 933 625C937.264 623.235 940.752 620.248 944 617C944.041 615 944.042 613 944 611C943.34 610.67 942.68 610.34 942 610C942 608.68 942 607.36 942 606C941.34 605.67 940.68 605.34 940 605C939.362 602.695 938.98 600.385 938.562 598.031C938.377 597.361 938.191 596.691 938 596C937.34 595.67 936.68 595.34 936 595C935.039 593.006 935.039 593.006 934.055 590.414C933.7 589.483 933.346 588.553 932.98 587.594C932.616 586.614 932.251 585.634 931.875 584.625C931.502 583.653 931.13 582.681 930.746 581.68C928 574.397 928 574.397 928 571C927.34 570.67 926.68 570.34 926 570C926 568.68 926 567.36 926 566C925.34 565.67 924.68 565.34 924 565C923.035 562.742 923.035 562.742 922.062 559.875C920.534 555.488 918.87 551.251 917 547C915.693 543.972 915 542.315 915 539C914.34 538.67 913.68 538.34 913 538C912.667 536 912.333 534 912 532C911.34 531.67 910.68 531.34 910 531C910 529.68 910 528.36 910 527C909.34 526.67 908.68 526.34 908 526C906.928 523.743 905.95 521.496 905 519.188C893.748 492.797 879.358 467.769 861.109 445.566C860 444 860 444 860 442C859.408 441.746 858.817 441.492 858.207 441.23C855.757 439.864 854.464 438.471 852.687 436.312C849.734 432.803 846.618 429.595 843.285 426.445C842 425 842 425 842 423C841.165 422.629 841.165 422.629 840.312 422.25C837.576 420.771 835.323 419.065 833 417C833 416.34 833 415.68 833 415C832.257 414.773 831.515 414.546 830.75 414.312C827.489 412.756 826.071 410.915 824 408C825.375 405.038 827.004 402.579 829 400C829.66 399.01 830.32 398.02 831 397C832.021 396.505 832.021 396.505 833.062 396C835.353 395.103 835.353 395.103 836 392C837.333 391.333 838.667 390.667 840 390C841.637 388.04 841.637 388.04 843 386C843.66 385.34 844.32 384.68 845 384C845.66 383.01 846.32 382.02 847 381C847.516 380.546 848.031 380.093 848.562 379.625C850.434 377.51 850.476 375.752 851 373C851.742 371.793 851.742 371.793 852.5 370.562C854.195 367.666 854.56 365.301 855 362C855.33 361.34 855.66 360.68 856 360C856.239 356.943 856.185 353.877 856.187 350.812C856.2 349.974 856.212 349.135 856.225 348.271C856.237 343.125 855.594 338.938 854 334C853.724 332.614 853.456 331.225 853.195 329.836C851.885 323.793 849.337 318.273 846.875 312.625C845.951 310.494 845.031 308.362 844.117 306.227C843.711 305.294 843.305 304.362 842.886 303.401C842 301 842 301 842 298C841.34 297.67 840.68 297.34 840 297C839.148 294.82 839.148 294.82 838.375 292.125C838.115 291.241 837.854 290.356 837.586 289.445C837 287 837 287 837 284C836.34 283.67 835.68 283.34 835 283C835.33 282.34 835.66 281.68 836 281C835.34 280.67 834.68 280.34 834 280C834.33 279.34 834.66 278.68 835 278C834.34 277.67 833.68 277.34 833 277C833.33 276.34 833.66 275.68 834 275C833.34 274.67 832.68 274.34 832 274C832.33 273.34 832.66 272.68 833 272C832.34 272 831.68 272 831 272C831.33 270.68 831.66 269.36 832 268C831.34 267.67 830.68 267.34 830 267C830.33 266.34 830.66 265.68 831 265C830.34 264.67 829.68 264.34 829 264C829.33 263.34 829.66 262.68 830 262C829.34 261.67 828.68 261.34 828 261C828.33 260.34 828.66 259.68 829 259C828.34 258.67 827.68 258.34 827 258C826.618 256.344 826.286 254.675 826 253C825.67 252.34 825.34 251.68 825 251C825.33 250.34 825.66 249.68 826 249C825.34 248.67 824.68 248.34 824 248C823.184 245.566 823.184 245.566 822.437 242.562C821.498 238.677 821.498 238.677 820 235C816.978 236.737 816.978 236.737 814 239C813.835 239.66 813.67 240.32 813.5 241C812.684 244.265 809.703 245.198 807 247C806.638 248.326 806.303 249.659 806 251C804.333 252 802.667 253 801 254C800.856 254.639 800.711 255.279 800.562 255.938C799.659 259.249 796.766 260.175 794 262C794 262.99 794 263.98 794 265C793.381 265.227 792.762 265.454 792.125 265.688C789.378 267.384 789.134 269.053 788 272C787.01 272.33 786.02 272.66 785 273C782.749 275.337 782.749 275.337 780.5 278.188C779.727 279.13 778.953 280.072 778.156 281.043C776.055 283.924 774.493 286.769 773 290C772.34 290 771.68 290 771 290C769.14 292.592 767.428 295.144 766 298C765 299 764 300 763 301C762.67 301.66 762.34 302.32 762 303C761 304 760 305 759 306C758.67 306.66 758.34 307.32 758 308C757 309 756 310 755 311C753.882 313.118 753.882 313.118 753 316C752.34 316 751.68 316 751 316C751.186 316.763 751.371 317.526 751.562 318.312C752 321 752 321 751 324C750.704 326.343 750.494 328.687 750.281 331.039C750 333 750 333 749 334C749.032 335.998 749.068 337.996 749.16 339.992C749 342 749 342 747 345C746.693 346.956 746.404 348.915 746.125 350.875C745.201 354.864 744.762 356.491 741.312 358.793C738.125 360.062 738.125 360.062 735.008 361.035C730.994 362.323 727.979 364.021 725 367C724 368 724 368 722.062 368.312C719.808 368.794 719.808 368.794 719 371C718.67 371.66 718.34 372.32 718 373C717.34 373.144 716.68 373.289 716 373.438C715.34 373.623 714.68 373.809 714 374C713.303 375.654 712.639 377.323 712 379C709.937 380.688 709.937 380.688 708 382C707.67 382.66 707.34 383.32 707 384C706.382 384.73 705.765 385.459 705.129 386.211C698.398 395.028 693.429 408.875 694 420C693.67 420.66 693.34 421.32 693 422C692.745 424.007 692.492 426.015 692.281 428.027C692 430 692 430 691 433C690.34 433 689.68 433 689 433C689.33 434.65 689.66 436.3 690 438C689.34 438 688.68 438 688 438C688.186 438.743 688.371 439.485 688.562 440.25C688.992 442.95 688.851 444.446 688 447C687.34 447 686.68 447 686 447C686.206 447.784 686.412 448.567 686.625 449.375C686.749 450.241 686.872 451.108 687 452C686.34 452.66 685.68 453.32 685 454C683.522 458.398 682.881 462.809 683 467.438C683 468.613 683 469.789 683 471C682.34 471.66 681.68 472.32 681 473C680.376 475.207 679.847 477.443 679.375 479.688C679.115 480.888 678.854 482.088 678.586 483.324C678.008 486.949 677.972 490.339 678 494C677.67 494.33 677.34 494.66 677 495C676.77 497.002 676.541 499.005 676.32 501.008C675.953 503.292 675.057 504.957 674 507C674 507.825 674 508.65 674 509.5C674 512.308 673.234 513.532 672 516C671.958 517.666 671.958 519.334 672 521C671.709 522.343 671.39 523.682 671 525C670.34 525 669.68 525 669 525C668.87 525.899 668.87 525.899 668.738 526.816C667.432 535.238 665.608 543.513 663.677 551.813C662.499 557.028 661.84 561.663 662 567C661.67 567.33 661.34 567.66 661 568C660.77 570.001 660.541 572.002 660.32 574.004C659.953 576.29 659.087 577.971 658 580C658 581.32 658 582.64 658 584C657.34 584 656.68 584 656 584C656.33 585.65 656.66 587.3 657 589C656.34 589 655.68 589 655 589C655.186 589.743 655.371 590.485 655.562 591.25C655.992 593.95 655.851 595.446 655 598C654.34 598 653.68 598 653 598C653.186 598.763 653.371 599.526 653.562 600.312C654.153 603.943 652.955 606.121 651.687 609.562C650.095 614.349 648.933 619.211 647.812 624.125C647.634 624.889 647.455 625.653 647.27 626.44C646.245 631.056 645.92 635.246 646 640C645.67 640.33 645.34 640.66 645 641C644.632 643.328 644.298 645.662 644 648C643.34 648 642.68 648 642 648C642.186 648.743 642.371 649.485 642.562 650.25C642.992 652.95 642.851 654.446 642 657C641.34 657 640.68 657 640 657C640.186 657.763 640.371 658.526 640.562 659.312C641 662 641 662 640 665C639.856 666.031 639.711 667.062 639.562 668.125C639.377 669.074 639.191 670.022 639 671C638.34 671.33 637.68 671.66 637 672C636.535 673.895 636.535 673.895 636.375 676.062C636.251 677.362 636.127 678.661 636 680C634.113 679.746 634.113 679.746 632 679C630.918 677.223 630.918 677.223 630.187 675.062C629.933 674.352 629.68 673.642 629.418 672.91C629 671 629 671 630 669C629.34 668.67 628.68 668.34 628 668C628.33 667.34 628.66 666.68 629 666C628.34 666 627.68 666 627 666C627.33 664.68 627.66 663.36 628 662C627.34 661.67 626.68 661.34 626 661C625.605 658.676 625.278 656.341 625 654C624.456 651.513 623.737 649.129 623 646.688C622.031 643.115 621.523 639.659 621 636C620.545 634.409 620.089 632.819 619.613 631.234C618.746 628.073 618.027 624.887 617.312 621.688C617.04 620.474 616.768 619.261 616.488 618.012C616 615 616 615 617 613C616.34 613 615.68 613 615 613C614.939 612.385 614.879 611.77 614.816 611.137C614.691 609.924 614.691 609.924 614.562 608.688C614.481 607.887 614.4 607.086 614.316 606.262C614.047 603.839 614.047 603.839 613 601C613.33 600.34 613.66 599.68 614 599C613.34 599 612.68 599 612 599C611.939 598.385 611.879 597.77 611.816 597.137C611.691 595.924 611.691 595.924 611.562 594.688C611.481 593.887 611.4 593.086 611.316 592.262C611.047 589.839 611.047 589.839 610 587C610.33 586.34 610.66 585.68 611 585C610.34 584.67 609.68 584.34 609 584C608.656 582.145 608.656 582.145 608.5 579.812C608.151 575.919 607.285 572.704 606 569C605.668 567.441 605.358 565.878 605.062 564.312C604.351 560.566 603.467 556.922 602.437 553.25C599.622 543.133 599.622 543.133 601 539C600.34 539 599.68 539 599 539C599.33 537.68 599.66 536.36 600 535C599.34 535 598.68 535 598 535C596.875 528.25 596.875 528.25 598 526C597.34 525.67 596.68 525.34 596 525C595.711 523.008 595.427 521.013 595.246 519.008C595.042 516.797 595.042 516.797 594 514C593.66 512.001 593.327 510.001 593 508C592.44 505.519 591.736 503.125 591 500.688C590.031 497.115 589.523 493.659 589 490C588.545 488.408 588.089 486.816 587.613 485.23C586.75 482.09 586.028 478.927 585.312 475.75C585.04 474.549 584.768 473.347 584.488 472.109C584 469 584 469 585 466C584.34 466 583.68 466 583 466C583.33 464.68 583.66 463.36 584 462C583.34 462 582.68 462 582 462C581.939 461.385 581.879 460.77 581.816 460.137C581.691 458.924 581.691 458.924 581.562 457.688C581.481 456.887 581.4 456.086 581.316 455.262C581.047 452.839 581.047 452.839 580 450C580.33 449.34 580.66 448.68 581 448C580.34 448 579.68 448 579 448C578.939 447.397 578.879 446.793 578.816 446.172C578.733 445.373 578.649 444.573 578.562 443.75C578.481 442.961 578.4 442.172 578.316 441.359C577.871 438.037 577.003 435.01 576 431.812C575.241 428.92 574.813 426.555 574.562 423.625C574.175 419.547 573.131 416.024 571.754 412.18C571.052 410.151 570.499 408.15 570 406.062C566.73 392.72 561.979 378.986 550 371C550 370.34 550 369.68 550 369C549.01 369 548.02 369 547 369C547 368.34 547 367.68 547 367C546.01 367 545.02 367 544 367C543 366 542 365 541 364C536.747 361.648 533.064 360.336 528.312 359.562C527.549 359.377 526.786 359.191 526 359C525.67 358.34 525.34 357.68 525 357C522.473 356.344 522.473 356.344 520 356C519.619 353.674 519.287 351.339 519 349C519.33 348.67 519.66 348.34 520 348C520.1 345.385 520.139 342.802 520.125 340.188C520.129 339.462 520.133 338.737 520.137 337.99C520.13 334.519 520.086 331.314 519 328C517.889 324.222 517.889 324.222 519 322C518.34 321.67 517.68 321.34 517 321C517.33 320.34 517.66 319.68 518 319C517.34 318.67 516.68 318.34 516 318C516.33 317.34 516.66 316.68 517 316C516.34 315.67 515.68 315.34 515 315C514.119 313.274 513.296 311.517 512.5 309.75C507.852 300.215 501.333 291.886 493.633 284.598C491.859 282.862 490.285 281.024 488.687 279.125C485.988 275.983 483.109 273.237 480 270.5C476.287 267.224 472.956 263.87 469.773 260.082C467.774 257.734 465.668 255.503 463.562 253.25C458.71 247.897 454.85 242.106 451 236C448.563 238.437 447.857 240.562 446.617 243.777C446.172 244.93 445.728 246.083 445.269 247.271C444.809 248.481 444.349 249.691 443.875 250.938C443.173 252.746 443.173 252.746 442.457 254.592C439.927 260.631 439.927 260.631 439 267C438.34 267 437.68 267 437 267C437.031 268.423 437.031 268.423 437.062 269.875C437 273 437 273 436 275C435.34 275 434.68 275 434 275C433.841 275.559 433.683 276.119 433.519 276.695C431.652 283.112 429.444 289.353 427.086 295.605C425.974 299.08 425.467 302.39 425 306C424.67 306.66 424.34 307.32 424 308C423.34 308 422.68 308 422 308C422.33 308.99 422.66 309.98 423 311C422.34 311 421.68 311 421 311C420.963 311.603 420.925 312.207 420.887 312.828C420.788 314.027 420.788 314.027 420.687 315.25C420.629 316.039 420.571 316.828 420.512 317.641C420 320 420 320 418.582 321.847C416.897 324.141 416.079 326.118 415.176 328.809C414.717 330.177 414.717 330.177 414.248 331.572C413.939 332.518 413.631 333.463 413.312 334.438C412.992 335.379 412.672 336.321 412.342 337.291C412.039 338.204 411.737 339.118 411.426 340.059C411.152 340.887 410.877 341.715 410.595 342.568C409.968 345.132 409.893 347.371 410 350C409.34 350.33 408.68 350.66 408 351C408.031 352.145 408.031 352.145 408.062 353.312C408 356 408 356 407 359C407.385 362.855 408.259 364.378 411 367C411 367.99 411 368.98 411 370C411.99 370.33 412.98 370.66 414 371C414.702 372.652 415.37 374.319 416 376C416.66 376.33 417.32 376.66 418 377C418.433 377.959 418.433 377.959 418.875 378.938C419.822 381.157 419.822 381.157 422 381.938C424.745 383.396 424.914 385.175 426 388C426.99 388.33 427.98 388.66 429 389C429 389.99 429 390.98 429 392C429.562 392.231 430.124 392.461 430.703 392.699C433.606 394.343 435.496 396.356 437.75 398.812C438.549 399.665 439.348 400.517 440.172 401.395C442.213 404.304 442.467 405.535 442 409C441.25 411.25 441.25 411.25 440 413C439.381 413.144 438.762 413.289 438.125 413.438C434.94 414.28 433.945 416.406 432 419C429.388 421.75 426.731 424.231 423.75 426.562C420.867 429.118 420.802 429.562 420 433C418.333 434 416.667 435 415 436C414.638 437.326 414.303 438.659 414 440C411.937 441.25 411.937 441.25 410 442C410 442.99 410 443.98 410 445C409.01 445.33 408.02 445.66 407 446C407 446.99 407 447.98 407 449C406.01 449.33 405.02 449.66 404 450C402.597 451.552 402.597 451.552 401.336 453.492C400.854 454.197 400.372 454.902 399.875 455.629C399.132 456.741 399.132 456.741 398.375 457.875C397.872 458.608 397.369 459.342 396.852 460.098C393.988 464.321 393.988 464.321 392 469C389.625 472.562 387.139 476.04 384.656 479.527C383.237 481.646 382.075 483.695 381 486C380 488 380 488 378 491C377.67 491.66 377.34 492.32 377 493C376.34 493.66 375.68 494.32 375 495C375 495.99 375 496.98 375 498C374.013 499.013 373.01 500.01 372 501C370.874 502.863 369.806 504.761 368.777 506.68C368.161 507.827 367.544 508.974 366.909 510.156C366.251 511.396 365.594 512.635 364.937 513.875C364.606 514.498 364.274 515.12 363.932 515.762C353.921 533.92 353.921 533.92 346 553C344.808 555.405 343.598 557.798 342.375 560.188C339.447 565.976 336.667 571.809 334.062 577.75C333.768 578.417 333.474 579.083 333.171 579.77C331.458 583.726 330.302 587.413 329.5 591.625C329 594 329 594 328 596C327.34 596 326.68 596 326 596C326 597.65 326 599.3 326 601C325.34 601.33 324.68 601.66 324 602C323.033 604.455 322.177 606.867 321.375 609.375C321.146 610.061 320.916 610.747 320.68 611.453C319.712 614.414 319 616.866 319 620C325.41 626.003 333.883 629.646 341.723 633.426C345.053 635.035 348.367 636.676 351.68 638.32C352.643 638.798 352.643 638.798 353.625 639.286C367.76 646.343 367.76 646.343 374 651C374.33 651.99 374.66 652.98 375 654C374.34 654.99 373.68 655.98 373 657C372.711 657.681 372.422 658.361 372.125 659.062C371 661 371 661 368.937 662C368.298 662.33 367.659 662.66 367 663C366.783 663.959 366.783 663.959 366.562 664.938C365.733 667.98 363.625 668.452 361 670C361 670.99 361 671.98 361 673C360.381 673.227 359.762 673.454 359.125 673.688C356.773 674.849 356.773 674.849 356 677.5C354.769 680.578 353.844 680.578 351 682C350.67 682.825 350.34 683.65 350 684.5C348.779 687.554 347.839 687.626 345 689C344.835 689.66 344.67 690.32 344.5 691C344.335 691.66 344.17 692.32 344 693C342.675 693.684 341.341 694.35 340 695C338.862 697.016 338.862 697.016 338 699C338.737 699.406 339.474 699.812 340.234 700.231C362.358 712.423 384.463 724.649 406.5 737C408.004 737.842 408.004 737.842 409.539 738.7C414.55 741.504 419.559 744.314 424.559 747.138C427.056 748.546 429.555 749.95 432.055 751.352C433.26 752.029 434.464 752.709 435.666 753.391C437.334 754.337 439.007 755.274 440.68 756.211C442.114 757.02 442.114 757.02 443.578 757.845C446.004 759.215 446.004 759.215 449 759C449.98 756.2 449.98 756.2 450.465 754.078C451.026 751.898 451.757 749.852 452.562 747.75C452.967 746.69 452.967 746.69 453.379 745.609C453.584 745.078 453.789 744.547 454 744C454.66 744 455.32 744 456 744C456.124 743.072 456.247 742.144 456.375 741.188C457 738 457 738 459 735C459.704 733.013 460.371 731.012 461 729C461.927 726.22 462.968 723.53 464.062 720.812C464.425 719.911 464.787 719.01 465.16 718.082C465.437 717.395 465.714 716.708 466 716C466.66 716 467.32 716 468 716C468.33 713.69 468.66 711.38 469 709C469.66 709 470.32 709 471 709C471.124 708.072 471.247 707.144 471.375 706.188C472 703 472 703 474 700C474.33 699.34 474.66 698.68 475 698C477.042 701.249 478.643 704.413 480 708C480.33 708.66 480.66 709.32 481 710C480.67 710.99 480.34 711.98 480 713C480.66 713.33 481.32 713.66 482 714C482 715.98 482 717.96 482 720C482.66 720.33 483.32 720.66 484 721C483.67 721.99 483.34 722.98 483 724C483.66 724.33 484.32 724.66 485 725C484.67 725.99 484.34 726.98 484 728C484.66 728.33 485.32 728.66 486 729C487 732 487 732 486 735C486.66 735.33 487.32 735.66 488 736C488.932 738.797 489.487 741.415 490 744.312C490.175 745.286 490.351 746.259 490.531 747.262C490.893 749.376 491.207 751.5 491.5 753.625C491.665 754.409 491.83 755.192 492 756C492.66 756.33 493.32 756.66 494 757C494.269 758.883 494.528 760.768 494.723 762.66C495.014 765.12 495.437 767.512 495.937 769.938C496.091 770.689 496.244 771.441 496.402 772.215C496.838 774.213 496.838 774.213 499 775C498.67 775.99 498.34 776.98 498 778C498.66 778.33 499.32 778.66 500 779C499.67 779.66 499.34 780.32 499 781C499.66 781.33 500.32 781.66 501 782C500.67 782.99 500.34 783.98 500 785C500.66 785.33 501.32 785.66 502 786C501.67 786.99 501.34 787.98 501 789C501.66 789.33 502.32 789.66 503 790C502.67 790.99 502.34 791.98 502 793C502.66 793.33 503.32 793.66 504 794C504.765 796.65 505.414 799.247 506 801.938C506.175 802.706 506.35 803.475 506.531 804.268C507.657 809.259 508.672 814.263 509.508 819.312C509.67 819.869 509.833 820.426 510 821C510.66 821.33 511.32 821.66 512 822C512.395 824.583 512.508 827.142 512.656 829.75C512.77 830.493 512.883 831.235 513 832C513.66 832.33 514.32 832.66 515 833C514.67 833.99 514.34 834.98 514 836C514.66 836.33 515.32 836.66 516 837C515.67 837.66 515.34 838.32 515 839C515.66 839.33 516.32 839.66 517 840C516.67 840.99 516.34 841.98 516 843C516.66 843.33 517.32 843.66 518 844C517.67 844.99 517.34 845.98 517 847C517.66 847.33 518.32 847.66 519 848C519.496 850.057 519.978 852.118 520.397 854.192C521.068 857.316 521.882 860.379 522.727 863.461C523.191 865.157 523.191 865.157 523.664 866.887C524.311 869.236 524.96 871.585 525.609 873.934C525.916 875.056 526.223 876.179 526.539 877.336C526.82 878.352 527.1 879.368 527.389 880.416C528 883 528 883 528 886C528.66 886.33 529.32 886.66 530 887C529.67 887.99 529.34 888.98 529 890C529.66 890.33 530.32 890.66 531 891C530.67 891.66 530.34 892.32 530 893C530.66 893.33 531.32 893.66 532 894C531.67 894.99 531.34 895.98 531 897C531.66 897.33 532.32 897.66 533 898C532.67 898.66 532.34 899.32 532 900C532.66 900 533.32 900 534 900C533.67 901.65 533.34 903.3 533 905C533.66 905.33 534.32 905.66 535 906C535.846 908.537 536.384 910.855 536.867 913.473C538.189 920.222 540.093 926.791 541.965 933.404C542.226 934.342 542.488 935.28 542.758 936.246C543.116 937.51 543.116 937.51 543.481 938.799C544 941 544 941 544 944C544.66 944.33 545.32 944.66 546 945C546 946.98 546 948.96 546 951C546.66 951.33 547.32 951.66 548 952C545.625 952.625 545.625 952.625 543 953C542.34 952.34 541.68 951.68 541 951C540.01 950.67 539.02 950.34 538 950C537.34 949.34 536.68 948.68 536 948C535.01 947.67 534.02 947.34 533 947C532 946 531 945 530 944C527.84 942.776 525.697 941.885 523.375 941C521 940 521 940 519 938C518.01 937.67 517.02 937.34 516 937C515.34 936.34 514.68 935.68 514 935C513.01 934.67 512.02 934.34 511 934C510.67 933.34 510.34 932.68 510 932C509.381 931.856 508.762 931.711 508.125 931.562C505.595 930.893 504.819 929.819 503 928C501.674 927.638 500.341 927.303 499 927C498.34 926.34 497.68 925.68 497 925C496.01 924.67 495.02 924.34 494 924C494 923.34 494 922.68 494 922C493.01 922 492.02 922 491 922C490.34 921.34 489.68 920.68 489 920C488.01 919.67 487.02 919.34 486 919C486 918.34 486 917.68 486 917C485.319 916.938 484.639 916.876 483.937 916.812C480.045 915.736 476.965 913.743 474 911C474 910.34 474 909.68 474 909C473.103 908.814 473.103 908.814 472.187 908.625C470 908 470 908 467 906C467 905.34 467 904.68 467 904C466.42 903.948 465.84 903.897 465.242 903.844C461.896 902.585 461.006 900.515 459.125 897.5C458.746 896.895 458.367 896.289 457.977 895.666C453.582 888.523 449.582 881.148 445.511 873.819C435.512 855.872 424.972 838.779 412.168 822.699C411 821 411 821 411 819C409.68 818.34 408.36 817.68 407 817C407 816.34 407 815.68 407 815C405.35 814.34 403.7 813.68 402 813C402 812.34 402 811.68 402 811C401.01 811 400.02 811 399 811C398 810 397 809 396 808C393.37 806.816 390.736 805.912 388 805C387.567 804.546 387.134 804.093 386.687 803.625C383.913 800.953 380.558 799.356 376.812 798.5C375 798 375 798 373.656 796.59C371.765 794.775 370.111 794.038 367.687 793.062C363.795 791.419 360.507 789.365 357 787C355.669 786.658 354.336 786.322 353 786C352 785 351 784 350 783C349.381 782.856 348.762 782.711 348.125 782.562C346 782 346 782 343.625 780.062C340.798 777.841 338.386 777.104 335 776C333.981 775.02 332.977 774.022 332 773C331.34 772.835 330.68 772.67 330 772.5C328 772 328 772 326.625 770.562C324.384 768.408 321.93 767.935 319 767C318.34 766.34 317.68 765.68 317 765C316.01 764.67 315.02 764.34 314 764C313.526 763.505 313.051 763.01 312.562 762.5C311.12 760.86 311.12 760.86 309.125 760.562C306.142 759.773 304.361 757.948 302 756C299.528 754.599 297.008 753.59 294.375 752.5C291 751 291 751 289 749C288.01 748.67 287.02 748.34 286 748C285.526 747.505 285.051 747.01 284.562 746.5C283.102 744.85 283.102 744.85 281 744.5C278.545 743.886 277.762 742.762 276 741C275.34 740.835 274.68 740.67 274 740.5C271.562 739.891 270.706 738.784 269 737C268.34 737 267.68 737 267 737C266.319 736.288 266.319 736.288 265.625 735.562C264.117 733.853 264.117 733.853 262 733.5C260 733 260 733 258.625 731.562C256.976 729.754 256.976 729.754 254 729C250.978 727.993 250.114 727.21 248 725C246.671 724.648 245.338 724.312 244 724C243.67 723.34 243.34 722.68 243 722C242.381 721.856 241.762 721.711 241.125 721.562C238.595 720.893 237.819 719.819 236 718C234.674 717.638 233.341 717.303 232 717C231.34 716.34 230.68 715.68 230 715C229.175 714.505 228.35 714.01 227.5 713.5C225 712 225 712 223 710C222.34 709.897 221.68 709.794 221 709.688C219 709 219 709 217.75 706.75C217.005 704.02 216.839 701.813 217 699C217.66 698.67 218.32 698.34 219 698C219.343 696.335 219.674 694.668 220 693C222.369 686.315 222.369 686.315 225 685C225.371 683.007 225.697 681.005 226 679C226.633 676.989 227.291 674.985 228 673C228.66 673 229.32 673 230 673C230.33 670.69 230.66 668.38 231 666C231.66 666 232.32 666 233 666C233.103 664.969 233.206 663.938 233.312 662.875C233.996 659.023 235.141 656.407 237 653C237.33 652.01 237.66 651.02 238 650C238.495 649.216 238.99 648.433 239.5 647.625C240.997 645.006 241.577 642.963 242 640C242.66 640 243.32 640 244 640C244.124 638.948 244.247 637.896 244.375 636.812C244.911 633.54 245.639 630.995 247 628C247.66 628 248.32 628 249 628C249.186 626.36 249.186 626.36 249.375 624.688C250 621 250 621 252 618C253.936 614.443 255.055 610.79 256.219 606.926C257 605 257 605 259 604C259.352 602.003 259.682 600.002 260 598C260.802 595.69 261.658 593.397 262.562 591.125C263.017 589.973 263.473 588.82 263.941 587.633C264.465 586.33 264.465 586.33 265 585C265.66 585 266.32 585 267 585C267.124 584.031 267.247 583.061 267.375 582.062C267.581 581.052 267.787 580.041 268 579C268.66 578.67 269.32 578.34 270 578C270.389 576.01 270.719 574.008 271 572C272 569 272 569 273.5 566.625C274.997 564.006 275.577 561.963 276 559C276.66 559 277.32 559 278 559C278.186 557.422 278.186 557.422 278.375 555.812C278.911 552.54 279.639 549.995 281 547C281.66 547 282.32 547 283 547C283.124 546.072 283.247 545.144 283.375 544.188C284 541 284 541 286 538C287.201 535.88 287.971 534.15 288.437 531.75C289.209 527.979 290.602 524.586 292 521C292.66 521 293.32 521 294 521C294.186 519.422 294.186 519.422 294.375 517.812C294.911 514.54 295.639 511.995 297 509C297.66 509 298.32 509 299 509C299.082 508.21 299.165 507.42 299.25 506.605C300.233 501.878 302.07 497.723 304 493.312C304.73 491.621 305.459 489.93 306.187 488.238C306.511 487.496 306.835 486.754 307.168 485.99C307.852 484.355 308.44 482.681 309 481C309.66 480.01 310.32 479.02 311 478C311.165 477.34 311.33 476.68 311.5 476C312 474 312 474 314 471C314.144 470.34 314.289 469.68 314.437 469C315 467 315 467 316.5 465.625C318.646 463.3 318.615 461.083 319 458C320.208 454.377 321.637 450.854 323.062 447.312C323.485 446.26 323.485 446.26 323.916 445.186C324.61 443.457 325.305 441.728 326 440C326.66 440 327.32 440 328 440C328.103 438.928 328.206 437.855 328.312 436.75C329.023 432.875 329.714 431.989 332 429C333.146 426.044 334.073 423.031 335 420C335.33 419.01 335.66 418.02 336 417C335.275 415.32 334.545 413.642 333.769 411.984C332.501 408.714 332.305 405.481 332 402C331.67 402 331.34 402 331 402C330.942 398.771 330.906 395.542 330.875 392.312C330.85 390.944 330.85 390.944 330.824 389.549C330.79 384.897 330.819 381.225 333 377C333.33 376.01 333.66 375.02 334 374C335 371 336 368 337 365C337.66 365 338.32 365 339 365C339.11 363.834 339.219 362.668 339.332 361.466C339.863 357.249 341.096 353.471 342.687 349.543C342.95 348.873 343.213 348.204 343.483 347.514C344.313 345.401 345.156 343.294 346 341.188C346.566 339.756 347.131 338.325 347.695 336.893C348.488 334.881 349.282 332.87 350.083 330.861C351.121 328.256 352.113 325.662 353 323C353.667 321 354.333 319 355 317C355.66 317 356.32 317 357 317C357.186 315.453 357.186 315.453 357.375 313.875C357.939 310.379 358.787 307.316 360 304C360.66 304 361.32 304 362 304C362.124 302.866 362.247 301.731 362.375 300.562C362.581 299.387 362.787 298.211 363 297C363.66 296.67 364.32 296.34 365 296C365.358 293.67 365.688 291.336 366 289C366.937 286.125 366.937 286.125 368 284C368.66 283.67 369.32 283.34 370 283C370.144 281.886 370.289 280.773 370.437 279.625C371 276 371 276 372.5 274.562C375.046 271.91 374.707 268.573 375 265C375.66 265 376.32 265 377 265C377 263.35 377 261.7 377 260C377.66 260 378.32 260 379 260C379.186 259.196 379.186 259.196 379.375 258.375C380.33 254.746 381.494 251.215 382.937 247.75C384.26 244.327 385.231 240.837 386.219 237.305C387 235 387 235 389 232C390.118 229.882 390.118 229.882 391 227C391.33 226.34 391.66 225.68 392 225C392.33 224.01 392.66 223.02 393 222C393.33 221.381 393.66 220.762 394 220.125C395.11 217.99 395.11 217.99 395.5 215.438C396 213 396 213 398 210C398.143 209.285 398.286 208.569 398.434 207.832C399.211 203.944 400.64 200.381 402.062 196.688C402.344 195.947 402.626 195.206 402.916 194.443C403.607 192.628 404.303 190.814 405 189C405.66 189 406.32 189 407 189C407 187.35 407 185.7 407 184C407.66 184 408.32 184 409 184C409.186 182.67 409.186 182.67 409.375 181.312C410.208 176.898 411.511 173.734 414 170C415.425 166.865 416.38 163.68 417.312 160.375C418.994 154.647 421.458 149.388 424 144C425.465 140.704 426.858 137.425 428 134C428.984 131.992 429.982 129.991 431 128ZM424 145C425 147 425 147 425 147L424 145ZM422 150C423 152 423 152 423 152L422 150ZM420 155C421 157 421 157 421 157L420 155ZM418 160C419 162 419 162 419 162L418 160ZM405 192C406 194 406 194 406 194L405 192ZM403 197C404 199 404 199 404 199L403 197ZM401 202C402 204 402 204 402 204L401 202ZM388 235C389 237 389 237 389 237L388 235ZM386 240C387 242 387 242 387 242L386 240ZM375 268C376 270 376 270 376 270L375 268ZM372 276C373 278 373 278 373 278L372 276ZM368 286C369 288 369 288 369 288L368 286ZM367 289C368 291 368 291 368 291L367 289ZM592 294C592 294.33 592 294.66 592 295C594.31 295 596.62 295 599 295C599 294.67 599 294.34 599 294C596.69 294 594.38 294 592 294ZM608 295C608 295.33 608 295.66 608 296C609.98 296 611.96 296 614 296C614 295.67 614 295.34 614 295C612.02 295 610.04 295 608 295ZM621 296C621 296.33 621 296.66 621 297C622.98 297 624.96 297 627 297C627 296.67 627 296.34 627 296C625.02 296 623.04 296 621 296ZM636 297C636 297.33 636 297.66 636 298C644.58 298 653.16 298 662 298C662 297.67 662 297.34 662 297C653.42 297 644.84 297 636 297ZM360 307C361 309 361 309 361 309L360 307ZM358 312C359 314 359 314 359 314L358 312ZM355 320C356 322 356 322 356 322L355 320ZM352 328C353 330 353 330 353 330L352 328ZM349 336C350 338 350 338 350 338L349 336ZM347 341C348 343 348 343 348 343L347 341ZM345 346C346 348 346 348 346 348L345 346ZM857 347C857 349.97 857 352.94 857 356C857.33 356 857.66 356 858 356C858 353.03 858 350.06 858 347C857.67 347 857.34 347 857 347ZM344 349C345 351 345 351 345 351L344 349ZM343 352C344 354 344 354 344 354L343 352ZM341 357C342 359 342 359 342 359L341 357ZM340 360C341 362 341 362 341 362L340 360ZM337 368C338 370 338 370 338 370L337 368ZM336 371C337 373 337 373 337 373L336 371ZM332 382C333 384 333 384 333 384L332 382ZM330 433C331 435 331 435 331 435L330 433ZM325 445C326 447 326 447 326 447L325 445ZM323 450C324 452 324 452 324 452L323 450ZM307 488C308 490 308 490 308 490L307 488ZM304 495C305 497 305 497 305 497L304 495ZM302 500C303 502 303 502 303 502L302 500ZM296 514C297 516 297 516 297 516L296 514ZM291 526C292 528 292 528 292 528L291 526ZM280 552C281 554 281 554 281 554L280 552ZM264 590C265 592 265 592 265 592L264 590ZM262 595C263 597 263 597 263 597L262 595ZM257 607C258 609 258 609 258 609L257 607ZM251 621C252 623 252 623 252 623L251 621ZM246 633C247 635 247 635 247 635L246 633ZM235 659C236 661 236 661 236 661L235 659ZM790 708C791 711 791 711 791 711L790 708ZM789 712C790 714 790 714 790 714L789 712ZM788 715C789 717 789 717 789 717L788 715ZM787 718C788 720 788 720 788 720L787 718ZM465 721C466 723 466 723 466 723L465 721ZM786 721C787 723 787 723 787 723L786 721ZM785 725C786 727 786 727 786 727L785 725ZM784 728C785 730 785 730 785 730L784 728ZM783 731C784 733 784 733 784 733L783 731ZM782 735C783 737 783 737 783 737L782 735ZM781 738C782 740 782 740 782 740L781 738ZM453 749C454 751 454 751 454 751L453 749ZM771 771C772 773 772 773 772 773L771 771ZM769 778C770 780 770 780 770 780L769 778ZM768 781C769 784 769 784 769 784L768 781ZM767 785C768 787 768 787 768 787L767 785ZM766 788C767 790 767 790 767 790L766 788ZM762 802C763 804 763 804 763 804L762 802ZM758 815C759 817 759 817 759 817L758 815ZM757 819C758 821 758 821 758 821L757 819ZM756 822C757 824 757 824 757 824L756 822ZM755 825C756 828 756 828 756 828L755 825ZM754 829C755 831 755 831 755 831L754 829ZM753 832C754 835 754 835 754 835L753 832ZM752 836C753 838 753 838 753 838L752 836ZM750 843C751 845 751 845 751 845L750 843ZM748 850C749 852 749 852 749 852L748 850ZM742 870C743 872 743 872 743 872L742 870ZM741 874C742 876 742 876 742 876L741 874ZM740 877C741 880 741 880 741 880L740 877ZM739 881C740 883 740 883 740 883L739 881ZM738 884C739 887 739 887 739 887L738 884ZM737 888C738 890 738 890 738 890L737 888ZM736 891C737 894 737 894 737 894L736 891ZM735 895C736 897 736 897 736 897L735 895ZM726 926C727 929 727 929 727 929L726 926ZM725 930C726 932 726 932 726 932L725 930ZM724 934C725 936 725 936 725 936L724 934ZM723 937C724 939 724 939 724 939L723 937ZM722 941C723 943 723 943 723 943L722 941ZM721 944C722 947 722 947 722 947L721 944Z" fill="white"/>
<path d="M817.687 573.375C818.451 573.581 819.214 573.787 820 574C821.45 578.349 820.735 582.138 819.062 586.375C818 588 818 588 816 589C815.248 591.159 815.248 591.159 814.664 593.793C812.746 601.255 809.936 608.309 807.141 615.478C806.751 616.492 806.362 617.506 805.961 618.551C805.608 619.455 805.255 620.359 804.892 621.29C803.94 624.181 803.427 626.99 803 630C802.34 630 801.68 630 801 630C800.691 630.949 800.381 631.897 800.062 632.875C798.206 638.337 796.097 640.451 791 643C790.67 643.66 790.34 644.32 790 645C788.424 645.212 786.848 645.418 785.269 645.602C780.401 646.456 775.774 648.3 771.125 649.937C770.068 650.298 769.011 650.658 767.922 651.029C766.919 651.379 765.916 651.729 764.883 652.09C763.969 652.408 763.055 652.726 762.114 653.054C759.832 653.807 759.832 653.807 759 656C757.277 656.387 757.277 656.387 754.937 656.687C749.84 657.601 745.395 659.354 740.687 661.437C740.006 661.738 739.325 662.039 738.623 662.348C734.925 664.02 731.451 665.852 728 668C727.299 668.33 726.597 668.66 725.875 669C723.845 670.083 722.544 671.308 721 673C720 674 720 674 718 674.375C717.01 674.684 717.01 674.684 716 675C715.67 675.99 715.34 676.98 715 678C714.072 678.216 714.072 678.216 713.125 678.437C710.268 679.194 709.606 680.591 708 683C707.01 683.99 707.01 683.99 706 685C705.34 685 704.68 685 704 685C701.509 680.311 702.073 677.058 703 672C703.495 671.505 703.495 671.505 704 671C704.365 669.675 704.694 668.34 705 667C705.251 666.066 705.251 666.066 705.508 665.113C705.988 663.05 706.207 661.109 706.375 659C707.038 652.652 708.128 645.641 711.066 639.926C712.144 637.704 712.332 635.954 712.5 633.5C712.731 630.129 713.479 627.994 715 625C715.374 623.008 715.374 623.008 715.5 621C715.957 616.687 716.893 614.107 720 611C720.474 610.505 720.949 610.01 721.437 609.5C724.939 606.138 728.71 603.886 733.437 602.937C734.959 602.626 736.479 602.313 738 602C738.733 601.857 739.467 601.714 740.223 601.566C740.809 601.379 741.396 601.192 742 601C742.33 600.34 742.66 599.68 743 599C745.02 598.327 747.064 597.723 749.125 597.187C752.086 596.361 754.776 595.234 757.562 593.937C761.055 592.322 764.181 591.559 768 591C768.66 590.34 769.32 589.68 770 589C771.73 588.435 773.485 587.944 775.25 587.5C782.828 585.53 782.828 585.53 790 582.437C793.066 580.968 795.668 580.53 799 580C799.66 579.34 800.32 578.68 801 578C802.794 577.438 804.611 576.946 806.437 576.5C810.354 575.54 813.893 572.845 817.687 573.375ZM710 645C711 648 711 648 711 648L710 645ZM709 649C710 652 710 652 710 652L709 649ZM708 654C709 656 709 656 709 656L708 654ZM707 658C708 661 708 661 708 661L707 658Z" fill="white"/>
<path d="M450 572C450.33 572.66 450.66 573.32 451 574C451.99 573.67 452.98 573.34 454 573C454 573.66 454 574.32 454 575C455.052 574.938 455.052 574.938 456.125 574.875C459.384 575.017 461.956 575.867 465 577C465 577.66 465 578.32 465 579C465.99 578.67 466.98 578.34 468 578C468 578.66 468 579.32 468 580C474.985 581.569 474.985 581.569 482 583C482 583.66 482 584.32 482 585C482.759 585.133 483.519 585.266 484.301 585.402C485.295 585.579 486.289 585.756 487.312 585.938C488.792 586.199 488.792 586.199 490.301 586.465C493 587 493 587 496 588C496 588.66 496 589.32 496 590C496.99 589.67 497.98 589.34 499 589C499 589.66 499 590.32 499 591C500.258 591.144 501.516 591.289 502.812 591.438C505.427 591.737 507.474 592.158 510 593C510 593.66 510 594.32 510 595C510.99 594.67 511.98 594.34 513 594C513 594.66 513 595.32 513 596C514.392 596.124 514.392 596.124 515.812 596.25C521.077 596.996 526.177 598.789 531 601C531.495 601.99 531.495 601.99 532 603C532.709 602.943 533.418 602.887 534.148 602.828C537.604 603.036 539.61 604.072 542.625 605.75C543.566 606.26 544.507 606.771 545.477 607.297C550.562 610.729 551.756 614.785 553.188 620.562C553.365 621.235 553.542 621.907 553.725 622.6C554.466 625.481 555 628.013 555 631C555.66 631.33 556.32 631.66 557 632C557 634.64 557 637.28 557 640C557.66 640.33 558.32 640.66 559 641C559 643.64 559 646.28 559 649C559.66 649.33 560.32 649.66 561 650C560.505 651.485 560.505 651.485 560 653C560.66 653.33 561.32 653.66 562 654C561.505 655.98 561.505 655.98 561 658C561.66 658.33 562.32 658.66 563 659C562.505 660.485 562.505 660.485 562 662C562.66 662.33 563.32 662.66 564 663C563.505 664.485 563.505 664.485 563 666C563.66 666 564.32 666 565 666C564.67 667.65 564.34 669.3 564 671C564.66 671.33 565.32 671.66 566 672C565.505 673.485 565.505 673.485 565 675C565.66 675 566.32 675 567 675C568.231 680.415 568.231 680.415 567.062 683.375C566.712 683.911 566.361 684.447 566 685C562.616 683.519 560.258 681.571 557.562 679.062C554.533 676.243 551.567 674.09 548 672C547.34 671.34 546.68 670.68 546 670C544.515 669.505 544.515 669.505 543 669C542.591 668.558 542.183 668.116 541.762 667.66C539.156 665.205 536.032 663.912 532.812 662.438C532.178 662.134 531.543 661.83 530.889 661.518C525.434 658.986 520.03 657.593 514.125 656.438C512 656 512 656 510 655C510 654.34 510 653.68 510 653C509.438 652.865 508.876 652.729 508.297 652.59C501.626 650.881 495.128 648.751 488.625 646.5C487.757 646.203 486.889 645.907 485.995 645.601C474.753 641.662 474.753 641.662 471.188 636.5C470.769 635.912 470.35 635.324 469.918 634.719C469 633 469 633 469 630C468.34 629.67 467.68 629.34 467 629C466.111 626.864 465.313 624.689 464.562 622.5C464.343 621.867 464.123 621.233 463.897 620.58C462.435 616.344 461.016 612.092 459.625 607.832C459.082 606.241 458.454 604.679 457.812 603.125C457 601 457 601 457 598C456.34 597.67 455.68 597.34 455 597C455.33 596.34 455.66 595.68 456 595C455.34 594.67 454.68 594.34 454 594C454.33 593.34 454.66 592.68 455 592C454.34 591.67 453.68 591.34 453 591C453.33 590.34 453.66 589.68 454 589C453.34 588.67 452.68 588.34 452 588C452 586.68 452 585.36 452 584C451.34 583.67 450.68 583.34 450 583C450.33 582.34 450.66 581.68 451 581C450.34 580.67 449.68 580.34 449 580C449.33 579.34 449.66 578.68 450 578C449.34 577.67 448.68 577.34 448 577C448 575.68 448 574.36 448 573C448.66 572.67 449.32 572.34 450 572Z" fill="white"/>
<path d="M571 870C575.976 871.477 578.796 874.377 582.313 878C583.137 878.82 583.137 878.82 583.979 879.656C588 883.733 588 883.733 588 886C588.588 886.255 589.176 886.51 589.781 886.773C592.219 888.121 593.632 889.568 595.5 891.625C601.949 898.231 609.765 904.304 619 906C619.866 906.206 620.733 906.412 621.625 906.625C624.052 907.071 624.052 907.071 626.75 907C627.493 907 628.235 907 629 907C629.33 907.33 629.66 907.66 630 908C633 908.167 633 908.167 636 908C636.33 907.67 636.66 907.34 637 907C638.998 907 640.996 907.004 642.992 907.062C645.209 907.089 645.209 907.089 648 906C648.639 905.876 649.279 905.752 649.938 905.625C652.442 904.866 653.924 903.588 656 902C661.556 899 661.556 899 664 899C664 898.34 664 897.68 664 897C664.558 896.93 665.116 896.859 665.691 896.787C668.904 895.692 670.559 893.812 672.949 891.414C673.879 890.483 674.809 889.553 675.768 888.594C676.247 888.106 676.726 887.619 677.219 887.117C678.684 885.628 680.162 884.153 681.643 882.68C686.744 877.941 686.744 877.941 690 872C692 872 694 872 696 872C696.196 873.582 696.382 875.166 696.563 876.75C696.719 878.073 696.719 878.073 696.879 879.422C697.047 883.003 696.126 885.622 695 889C694.744 891.018 694.559 893.036 694.379 895.062C694 897 694 897 692 900C691.302 901.413 690.63 902.839 689.977 904.273C689.595 905.098 689.213 905.923 688.82 906.773C688.028 908.498 687.239 910.225 686.453 911.953C684.353 916.477 682.179 920.125 679 924C679 924.99 679 925.98 679 927C677.515 927.495 677.515 927.495 676 928C675.856 928.619 675.711 929.238 675.563 929.875C674.796 932.769 673.436 933.309 671 935C670.134 935.887 669.268 936.774 668.375 937.688C666 940 666 940 664 940C663.505 941.485 663.505 941.485 663 943C662.01 943 661.02 943 660 943C658.276 943.914 656.591 944.902 654.938 945.938C646.203 951.363 637.216 951.874 627 951C622.858 949.986 618.96 948.571 615 947C613.417 946.415 611.834 945.832 610.25 945.25C609.178 944.838 608.105 944.425 607 944C607 943.34 607 942.68 607 942C605.68 941.67 604.36 941.34 603 941C603 940.34 603 939.68 603 939C602.438 938.933 601.876 938.866 601.297 938.797C591.319 935.335 583.754 919.428 579.395 910.836C576 903.629 576 903.629 576 900C575.34 899.67 574.68 899.34 574 899C574.33 898.34 574.66 897.68 575 897C574.34 896.67 573.68 896.34 573 896C572.055 893.067 571.579 890.024 571 887C570.773 886.051 570.546 885.103 570.313 884.125C569.837 879.368 570.452 874.736 571 870ZM625 908C629 909 629 909 629 909L625 908ZM637 908C637 908.33 637 908.66 637 909C638.65 909 640.3 909 642 909C642 908.67 642 908.34 642 908C640.35 908 638.7 908 637 908Z" fill="white"/>
<path d="M936 426C936.33 426 936.66 426 937 426C937 428.97 937 431.94 937 435C936.67 435 936.34 435 936 435C936 432.03 936 429.06 936 426Z" fill="#7C7D79"/>
<path d="M330 387C330.33 387 330.66 387 331 387C331 389.64 331 392.28 331 395C330.67 395 330.34 395 330 395C330 392.36 330 389.72 330 387Z" fill="#020504"/>
<path d="M568 686C568.66 686.33 569.32 686.66 570 687C570 687.66 570 688.32 570 689C569.01 688.67 568.02 688.34 567 688C567.33 687.34 567.66 686.68 568 686Z" fill="#535552"/>
<path d="M631 952C632.65 952 634.3 952 636 952C636 952.33 636 952.66 636 953C634.35 953 632.7 953 631 953C631 952.67 631 952.34 631 952Z" fill="#7C7D79"/>
<path d="M476 697C476.66 697 477.32 697 478 697C477.67 697.99 477.34 698.98 477 700C476.67 699.01 476.34 698.02 476 697Z" fill="#323532"/>
<path d="M701 681C701.66 682.32 702.32 683.64 703 685C702.34 685 701.68 685 701 685C701 683.68 701 682.36 701 681Z" fill="#1A1D1B"/>
<path d="M941 391C941.33 391 941.66 391 942 391C942 392.65 942 394.3 942 396C941.67 396 941.34 396 941 396C941 394.35 941 392.7 941 391Z" fill="#7C7D79"/>
<path d="M702 686C702.66 686.66 703.32 687.32 704 688C703.01 688.495 703.01 688.495 702 689C702 688.01 702 687.02 702 686Z" fill="#3F413E"/>
<path d="M747 345C748 349 748 349 748 349L747 345Z" fill="#7C7D79"/>
<path d="M547 953C547.33 953.66 547.66 954.32 548 955C547.34 954.67 546.68 954.34 546 954C546.33 953.67 546.66 953.34 547 953Z" fill="#2A2D2B"/>
<path d="M720 952C723 953 723 953 723 953L720 952Z" fill="#7C7D79"/>
<path d="M640 951C643 952 643 952 643 952L640 951Z" fill="#7C7D79"/>
<path d="M793 703C793.66 703 794.32 703 795 703C794.67 703.66 794.34 704.32 794 705C793.67 704.34 793.34 703.68 793 703Z" fill="#7C7D79"/>
<path d="M723 951C725 952 725 952 725 952L723 951Z" fill="#7C7D79"/>
<path d="M625 951C627 952 627 952 627 952L625 951Z" fill="#7C7D79"/>
<path d="M645 950C647 951 647 951 647 951L645 950Z" fill="#7C7D79"/>
<path d="M621 950C623 951 623 951 623 951L621 950Z" fill="#7C7D79"/>
<path d="M618 949C620 950 620 950 620 950L618 949Z" fill="#7C7D79"/>
<path d="M658 944C660 945 660 945 660 945L658 944Z" fill="white"/>
<path d="M738 943C740 944 740 944 740 944L738 943Z" fill="#7C7D79"/>
<path d="M751 936C753 937 753 937 753 937L751 936Z" fill="#7C7D79"/>
<path d="M649 905C651 906 651 906 651 906L649 905Z" fill="#020504"/>
<path d="M695 870C697 871 697 871 697 871L695 870Z" fill="#7C7D79"/>
<path d="M859 816C861 817 861 817 861 817L859 816Z" fill="#7C7D79"/>
<path d="M868 811C870 812 870 812 870 812L868 811Z" fill="#7C7D79"/>
<path d="M877 806C879 807 879 807 879 807L877 806Z" fill="#7C7D79"/>
<path d="M886 801C888 802 888 802 888 802L886 801Z" fill="#7C7D79"/>
<path d="M897 795C899 796 899 796 899 796L897 795Z" fill="#7C7D79"/>
<path d="M906 790C908 791 908 791 908 791L906 790Z" fill="#7C7D79"/>
<path d="M447 759C449 760 449 760 449 760L447 759Z" fill="#020504"/>
<path d="M530 662C532 663 532 663 532 663L530 662Z" fill="#7C7D79"/>
<path d="M741 661C743 662 743 662 743 662L741 661Z" fill="#7C7D79"/>
<path d="M528 661C530 662 530 662 530 662L528 661Z" fill="#7C7D79"/>
<path d="M523 659C525 660 525 660 525 660L523 659Z" fill="#7C7D79"/>
<path d="M520 658C522 659 522 659 522 659L520 658Z" fill="#7C7D79"/>
<path d="M760 654C762 655 762 655 762 655L760 654Z" fill="#7C7D79"/>
<path d="M763 653C765 654 765 654 765 654L763 653Z" fill="#7C7D79"/>
<path d="M777 648C779 649 779 649 779 649L777 648Z" fill="#7C7D79"/>
<path d="M780 647C782 648 782 648 782 648L780 647Z" fill="#7C7D79"/>
<path d="M489 647C491 648 491 648 491 648L489 647Z" fill="#7C7D79"/>
<path d="M783 646C785 647 785 647 785 647L783 646Z" fill="#7C7D79"/>
<path d="M481 644C483 645 483 645 483 645L481 644Z" fill="#7C7D79"/>
<path d="M740 600C742 601 742 601 742 601L740 600Z" fill="#020504"/>
<path d="M818 572C820 573 820 573 820 573L818 572Z" fill="#020504"/>
<path d="M734 361C736 362 736 362 736 362L734 361Z" fill="#7C7D79"/>
<path d="M2428.37 561.225V726.377H2543.69H2659V686.34V646.303H2592.23C2555.55 646.303 2523.92 645.553 2521.94 644.802C2518.87 643.551 2518.43 630.038 2518.43 519.687V396.073H2473.4H2428.37V561.225Z" fill="white"/>
<path d="M2275.5 395.285C2274.61 396.035 2273.95 470.231 2273.95 559.916V722.797L2279.04 724.296C2281.7 725.045 2302.07 725.795 2324.44 725.795H2364.74V559.666V393.537H2320.89C2296.76 393.537 2276.16 394.286 2275.5 395.285Z" fill="white"/>
<path d="M2004.65 454.094C1993.62 487.625 1969.15 561.442 1950.4 618.495C1931.44 675.297 1916.01 722.34 1916.01 722.841C1916.01 723.341 1936.73 723.842 1961.87 723.842H2007.95L2010.6 713.082C2012.14 707.327 2015.45 695.065 2017.88 685.557L2022.29 668.791L2073.22 669.292L2124.16 670.042L2131.65 697.067L2138.93 723.842L2185.67 723.341C2215.22 722.841 2232.2 721.59 2231.98 720.088C2231.54 716.585 2125.92 398.793 2124.38 396.04C2123.49 394.539 2102.99 393.538 2073.88 393.538H2024.71L2004.65 454.094ZM2090.2 540.924L2104.97 596.224H2073.44H2041.91L2043.89 589.218C2045 585.465 2051.39 561.693 2058.23 536.169C2073.44 478.867 2072.34 482.62 2073.88 484.372C2074.54 485.122 2081.82 510.646 2090.2 540.924Z" fill="white"/>
<path d="M1535.32 556.028V721.056L1540.38 722.306C1543.02 723.057 1559.53 723.307 1577.14 723.057L1609.06 722.306L1610.16 602.536L1611.26 482.765L1637.67 599.785C1651.98 664.046 1665.19 718.306 1666.95 720.306C1669.37 722.806 1676.85 723.557 1701.07 723.057L1732.32 722.306L1759.84 600.285L1787.35 478.265L1788.01 599.535L1788.45 720.806L1795.72 722.306C1799.46 723.057 1816.19 723.557 1832.48 723.057L1862.19 722.306V557.278V392.25L1803.42 391.5L1744.87 391L1741.35 404.002C1739.59 411.253 1729.46 456.011 1718.9 503.269C1705.47 562.529 1699.09 587.783 1697.76 584.533C1696.88 582.032 1686.98 539.775 1675.97 491.017C1664.97 442.258 1655.06 399.751 1653.96 396.751L1651.98 391H1593.65H1535.32V556.028Z" fill="white"/>
<path d="M1179.75 395.792C1179.75 397.043 1199.5 432.576 1223.64 474.615C1247.77 516.653 1267.52 551.685 1267.52 552.436C1267.52 553.187 1245.36 591.972 1218.15 638.766L1169 723.844H1219.25H1269.27L1296.7 673.297C1311.84 645.271 1325.01 622.501 1326.1 622.501C1326.98 622.501 1340.15 645.271 1355.07 673.297L1382.28 723.844H1432.52C1472.24 723.844 1482.55 723.093 1481.23 720.591C1480.14 719.089 1458.41 681.054 1432.74 636.513C1406.85 591.722 1386.23 554.188 1386.66 552.686C1387.32 551.185 1406.63 516.403 1429.89 475.115C1452.93 434.077 1472.46 398.795 1473.12 397.043C1473.99 394.04 1466.09 393.54 1425.94 393.54H1377.45L1352.87 443.836C1339.49 471.362 1327.64 493.132 1326.54 491.88C1325.45 490.629 1314.04 468.359 1300.87 442.335L1276.74 394.791L1228.24 394.04C1198.4 393.79 1179.75 394.291 1179.75 395.792Z" fill="#FA543E"/>
</svg>
