<svg width="1165" height="265" viewBox="0 0 1165 265" fill="none" xmlns="http://www.w3.org/2000/svg">
<path d="M972.35 134.811V265H1068.67H1165V233.439V201.878H1109.22C1078.58 201.878 1052.16 201.286 1050.51 200.695C1047.94 199.708 1047.58 189.056 1047.58 102.067V4.62214H1009.96H972.35V134.811Z" fill="white"/>
<path d="M873.528 4.45991C872.788 5.0507 872.233 63.5393 872.233 134.238V262.637L876.488 263.818C878.708 264.409 895.727 265 914.411 265H948.079V134.041V3.08139H911.451C891.287 3.08139 874.083 3.67218 873.528 4.45991Z" fill="white"/>
<path d="M659.578 50.8171C650.368 77.2494 629.923 135.44 614.267 180.414C598.427 225.191 585.534 262.275 585.534 262.67C585.534 263.064 602.848 263.459 623.845 263.459H662.341L664.551 254.977C665.84 250.44 668.603 240.775 670.629 233.279L674.313 220.063L716.861 220.457L759.409 221.049L765.671 242.353L771.749 263.459L810.797 263.064C835.479 262.67 849.661 261.684 849.477 260.5C849.109 257.739 760.882 7.22349 759.593 5.05368C758.856 3.87014 741.726 3.08111 717.413 3.08111H676.339L659.578 50.8171ZM731.043 119.265L743.384 162.858H717.045H690.706L692.364 157.335C693.285 154.376 698.626 135.637 704.336 115.517C717.045 70.3454 716.124 73.3042 717.413 74.685C717.966 75.2768 724.044 95.3969 731.043 119.265Z" fill="white"/>
<path d="M285.182 130.092V260.183L289.411 261.169C291.618 261.76 305.408 261.957 320.117 261.76L346.779 261.169L347.698 166.754L348.617 72.3391L370.682 164.586C382.633 215.243 393.665 258.015 395.136 259.592C397.159 261.563 403.411 262.154 423.636 261.76L449.746 261.169L472.729 164.98L495.713 68.7912L496.265 164.389L496.633 259.986L502.7 261.169C505.826 261.76 519.8 262.154 533.407 261.76L558.229 261.169V131.077V0.985885L509.136 0.39456L460.226 0.00034308L457.284 10.25C455.813 15.9661 447.355 51.2485 438.53 88.502C427.314 135.217 421.981 155.125 420.878 152.562C420.143 150.591 411.869 117.28 402.675 78.8437C393.482 40.4076 385.207 6.89914 384.288 4.53384L382.633 0.00034308H333.908H285.182V130.092Z" fill="white"/>
<path d="M8.98117 1.77537C8.98117 2.76165 25.4772 30.772 45.639 63.911C65.8008 97.05 82.2969 124.666 82.2969 125.258C82.2969 125.849 63.7847 156.424 41.0568 193.311L0 260.378H41.9732H83.7632L106.674 220.532C119.321 198.44 130.319 180.489 131.235 180.489C131.968 180.489 142.966 198.44 155.429 220.532L178.157 260.378H220.13C253.306 260.378 261.92 259.786 260.821 257.814C259.904 256.63 241.759 226.647 220.314 191.536C198.686 156.227 181.456 126.638 181.823 125.455C182.373 124.271 198.502 96.8527 217.931 64.3055C237.176 31.9555 253.489 4.14245 254.039 2.76165C254.772 0.394582 248.174 7.02143e-05 214.632 7.02143e-05H174.125L153.596 39.6485C142.416 61.3467 132.518 78.5079 131.602 77.5217C130.685 76.5354 121.154 58.9796 110.157 38.465L89.995 0.98635L49.4881 0.394582C24.5608 0.197326 8.98117 0.591838 8.98117 1.77537Z" fill="#FA543E"/>
</svg>
