<svg width="1155" height="1171" viewBox="0 0 1155 1171" fill="none" xmlns="http://www.w3.org/2000/svg">
<path d="M849.277 642.097C850.442 642.388 851.607 642.68 852.807 642.981C855.02 649.133 853.929 654.492 851.376 660.486C849.754 662.785 849.754 662.785 846.701 664.199C845.553 667.254 845.553 667.254 844.662 670.98C841.734 681.536 837.444 691.514 833.177 701.656C832.582 703.09 831.988 704.524 831.376 706.002C830.837 707.281 830.299 708.559 829.744 709.877C828.291 713.966 827.508 717.94 826.856 722.198C825.848 722.198 824.841 722.198 823.803 722.198C823.33 723.54 822.858 724.882 822.372 726.265C819.537 733.991 816.318 736.982 808.537 740.587C808.034 741.521 807.53 742.455 807.011 743.416C804.605 743.716 802.199 744.007 799.788 744.268C792.358 745.476 785.294 748.085 778.197 750.401C776.584 750.911 774.97 751.42 773.308 751.945C771.777 752.441 770.246 752.936 768.668 753.446C767.273 753.896 765.879 754.346 764.441 754.81C760.959 755.875 760.959 755.875 759.688 758.977C757.058 759.524 757.058 759.524 753.486 759.949C745.705 761.242 738.92 763.721 731.733 766.669C730.693 767.094 729.653 767.519 728.581 767.957C722.936 770.322 717.633 772.913 712.365 775.952C711.295 776.419 710.224 776.886 709.121 777.367C706.022 778.898 704.037 780.632 701.679 783.025C700.153 784.44 700.153 784.44 697.1 784.97C695.589 785.408 695.589 785.408 694.047 785.854C693.543 787.255 693.039 788.655 692.52 790.098C691.103 790.404 691.103 790.404 689.658 790.717C685.296 791.787 684.286 793.763 681.834 797.171C680.323 798.571 680.323 798.571 678.781 800C677.774 800 676.766 800 675.728 800C671.926 793.367 672.786 788.766 674.202 781.61C674.957 780.91 674.957 780.91 675.728 780.196C676.286 778.322 676.787 776.433 677.255 774.537C677.639 773.216 677.639 773.216 678.03 771.868C678.764 768.95 679.098 766.205 679.354 763.221C680.366 754.241 682.03 744.323 686.515 736.239C688.16 733.095 688.447 730.62 688.704 727.149C689.056 722.38 690.199 719.36 692.52 715.125C693.091 712.306 693.091 712.306 693.283 709.466C693.981 703.366 695.41 699.716 700.153 695.32C700.877 694.62 701.601 693.92 702.347 693.199C707.693 688.443 713.449 685.257 720.666 683.915C722.988 683.475 725.309 683.033 727.631 682.589C728.75 682.387 729.87 682.184 731.024 681.976C731.919 681.711 732.814 681.447 733.737 681.175C734.241 680.241 734.744 679.307 735.263 678.345C738.347 677.393 741.468 676.539 744.613 675.781C749.134 674.612 753.24 673.019 757.494 671.184C762.824 668.9 767.597 667.819 773.427 667.029C774.434 666.095 775.442 665.161 776.48 664.199C779.121 663.4 781.8 662.705 784.494 662.078C796.063 659.291 796.063 659.291 807.011 654.916C811.692 652.838 815.664 652.218 820.75 651.468C821.757 650.535 822.765 649.601 823.803 648.639C826.542 647.845 829.315 647.148 832.103 646.517C838.082 645.16 843.485 641.348 849.277 642.097ZM684.888 743.416C686.414 747.66 686.414 747.66 686.414 747.66L684.888 743.416ZM683.361 749.075C684.888 753.319 684.888 753.319 684.888 753.319L683.361 749.075ZM681.834 756.148C683.361 758.977 683.361 758.977 683.361 758.977L681.834 756.148ZM680.308 761.806C681.834 766.05 681.834 766.05 681.834 766.05L680.308 761.806Z" fill="#111111"/>
<path d="M311.052 639C311.555 639.94 312.059 640.881 312.578 641.85C314.088 641.379 315.599 640.909 317.155 640.425C317.155 641.365 317.155 642.305 317.155 643.274C318.76 643.186 318.76 643.186 320.398 643.096C325.37 643.298 329.295 644.51 333.94 646.124C333.94 647.064 333.94 648.005 333.94 648.973C335.451 648.503 336.961 648.033 338.518 647.549C338.518 648.489 338.518 649.429 338.518 650.398C349.176 652.634 349.176 652.634 359.88 654.673C359.88 655.613 359.88 656.553 359.88 657.522C361.038 657.711 362.197 657.9 363.391 658.095C364.907 658.347 366.424 658.599 367.986 658.858C370.243 659.23 370.243 659.23 372.546 659.609C376.664 660.372 376.664 660.372 381.242 661.796C381.242 662.737 381.242 663.677 381.242 664.646C382.753 664.176 384.263 663.706 385.82 663.221C385.82 664.162 385.82 665.102 385.82 666.071C387.739 666.276 389.659 666.482 391.637 666.694C395.626 667.122 398.751 667.721 402.604 668.92C402.604 669.861 402.604 670.801 402.604 671.77C404.115 671.3 405.626 670.83 407.182 670.345C407.182 671.285 407.182 672.226 407.182 673.195C409.306 673.371 409.306 673.371 411.474 673.551C419.507 674.614 427.289 677.168 434.648 680.319C435.403 681.729 435.403 681.729 436.174 683.168C437.255 683.087 438.337 683.007 439.452 682.923C444.725 683.22 447.786 684.696 452.386 687.086C453.822 687.814 455.258 688.541 456.737 689.29C464.497 694.18 466.319 699.96 468.503 708.191C468.774 709.149 469.044 710.106 469.323 711.093C470.454 715.199 471.269 718.806 471.269 723.062C472.276 723.532 473.283 724.002 474.321 724.487C474.321 728.248 474.321 732.01 474.321 735.885C475.328 736.355 476.335 736.825 477.372 737.31C477.372 741.071 477.372 744.833 477.372 748.708C478.379 749.178 479.386 749.648 480.424 750.133C479.669 752.249 479.669 752.249 478.898 754.407C479.905 754.877 480.912 755.347 481.95 755.832C481.195 758.653 481.195 758.653 480.424 761.531C481.431 762.001 482.438 762.471 483.476 762.956C482.721 765.072 482.721 765.072 481.95 767.23C482.957 767.7 483.964 768.17 485.002 768.655C484.246 770.771 484.246 770.771 483.476 772.929C484.483 772.929 485.49 772.929 486.528 772.929C486.024 775.28 485.521 777.631 485.002 780.053C486.009 780.523 487.016 780.993 488.053 781.478C487.298 783.594 487.298 783.594 486.528 785.752C487.535 785.752 488.542 785.752 489.579 785.752C491.457 793.468 491.457 793.468 489.675 797.685C489.14 798.449 488.605 799.213 488.053 800C482.89 797.89 479.292 795.115 475.179 791.54C470.556 787.524 466.03 784.456 460.588 781.478C459.581 780.538 458.574 779.597 457.536 778.628C455.27 777.923 455.27 777.923 452.958 777.204C452.335 776.574 451.711 775.944 451.069 775.295C447.093 771.796 442.326 769.955 437.413 767.853C436.445 767.421 435.476 766.988 434.478 766.543C426.155 762.936 417.908 760.951 408.899 759.305C405.656 758.681 405.656 758.681 402.604 757.257C402.604 756.316 402.604 755.376 402.604 754.407C401.747 754.214 400.889 754.021 400.006 753.823C389.827 751.388 379.912 748.353 369.989 745.146C368.664 744.723 367.34 744.301 365.976 743.866C348.822 738.253 348.822 738.253 343.381 730.898C342.742 730.061 342.103 729.223 341.444 728.36C340.043 725.912 340.043 725.912 340.043 721.637C339.036 721.167 338.029 720.697 336.992 720.212C335.635 717.169 334.418 714.07 333.272 710.951C332.937 710.049 332.602 709.146 332.257 708.216C330.026 702.18 327.861 696.123 325.738 690.053C324.91 687.786 323.952 685.56 322.973 683.346C321.733 680.319 321.733 680.319 321.733 676.044C320.726 675.574 319.719 675.104 318.681 674.619C319.185 673.679 319.688 672.739 320.207 671.77C319.2 671.3 318.193 670.83 317.155 670.345C317.659 669.405 318.162 668.464 318.681 667.496C317.674 667.025 316.667 666.555 315.629 666.071C316.133 665.13 316.636 664.19 317.155 663.221C316.148 662.751 315.141 662.281 314.104 661.796C314.104 659.916 314.104 658.035 314.104 656.097C313.096 655.627 312.089 655.157 311.052 654.673C311.555 653.732 312.059 652.792 312.578 651.823C311.571 651.353 310.563 650.883 309.526 650.398C310.029 649.458 310.533 648.518 311.052 647.549C310.045 647.078 309.038 646.608 308 646.124C308 644.243 308 642.362 308 640.425C309.007 639.955 310.014 639.484 311.052 639Z" fill="#111111"/>
<path d="M296.78 0C301.57 0.36322 302.706 1.82571 306.139 5.50015C309.259 9.93576 309.259 9.93576 309.259 14.1939C312.004 15.5991 312.004 15.5991 314.804 17.0327C314.804 18.4379 314.804 19.8431 314.804 21.2909C316.134 21.8179 316.134 21.8179 317.491 22.3555C321.105 24.5979 320.755 25.7873 321.737 29.8073C322.652 30.2757 323.567 30.7441 324.51 31.2267C325.425 31.6951 326.34 32.1635 327.283 32.6461C327.745 34.5386 328.207 36.4311 328.669 38.3236C329.584 38.792 330.499 39.2604 331.442 39.743C332.357 40.2114 333.272 40.6798 334.215 41.1624C334.677 43.0549 335.139 44.9475 335.601 46.84C336.488 47.2791 337.374 47.7182 338.288 48.1707C342.193 50.2306 342.328 52.7004 343.92 56.7758C344.835 57.2442 345.75 57.7126 346.693 58.1951C350.553 60.1709 350.823 62.6744 352.239 66.7115C353.154 67.1799 354.069 67.6483 355.012 68.1309C359.58 72.5619 363.777 77.1159 367.49 82.3248C367.49 83.2616 367.49 84.1984 367.49 85.1636C369.32 86.1004 371.15 87.0372 373.036 88.0024C373.036 89.4076 373.036 90.8128 373.036 92.2606C373.894 92.6119 374.751 92.9632 375.635 93.3251C378.582 95.0994 378.582 95.0994 379.838 97.7774C382.021 102.096 385.324 104.292 389.034 107.214C391.06 109.293 391.06 109.293 391.06 113.552C391.825 113.861 392.59 114.17 393.378 114.489C397.705 117.038 400.533 120.331 403.885 124.108C405.121 125.482 406.358 126.856 407.632 128.272C410.47 132.004 410.47 132.004 410.47 136.262C411.299 136.642 412.129 137.023 412.983 137.415C416.041 139.115 418.007 140.584 420.175 143.359C420.175 144.764 420.175 146.169 420.175 147.617C421.376 148.144 421.376 148.144 422.602 148.682C426.205 150.731 428.603 152.919 431.267 156.133C431.267 157.539 431.267 158.944 431.267 160.392C432.425 160.831 432.425 160.831 433.607 161.279C438.158 164.049 440.566 167.407 443.745 171.747C443.745 172.683 443.745 173.62 443.745 174.585C444.903 175.025 444.903 175.025 446.085 175.473C450.636 178.243 453.044 181.601 456.223 185.941C456.223 186.877 456.223 187.814 456.223 188.779C457.031 189.131 457.839 189.482 458.671 189.844C462.228 191.881 464.317 194.14 466.969 197.296C467.819 198.291 468.67 199.286 469.546 200.312C471.475 202.973 471.475 202.973 471.475 205.812C472.264 206.143 473.054 206.474 473.868 206.816C477.763 209.083 480.095 211.892 483.086 215.304C491.059 223.685 499.708 228.524 510.295 232.781C511.668 232.781 513.041 232.781 514.455 232.781C514.455 233.717 514.455 234.654 514.455 235.619C515.827 235.151 517.2 234.683 518.614 234.2C522.348 233.947 525.955 234.076 529.706 234.2C530.163 234.668 530.621 235.137 531.092 235.619C534.327 235.686 537.563 235.673 540.798 235.619C544.032 235.566 547.268 235.553 550.503 235.619C550.96 236.088 551.418 236.556 551.889 237.039C554.661 237.105 557.436 237.092 560.208 237.039C562.98 236.985 565.755 236.973 568.527 237.039C568.984 237.507 569.442 237.976 569.913 238.458C573.73 238.602 577.512 238.656 581.33 238.647C582.481 238.648 583.632 238.649 584.818 238.651C587.261 238.652 589.704 238.649 592.147 238.643C595.874 238.636 599.602 238.643 603.329 238.652C605.701 238.651 608.073 238.649 610.446 238.647C611.558 238.65 612.67 238.652 613.816 238.655C619.257 238.632 624.211 238.339 629.531 237.039C631.161 236.834 632.791 236.629 634.47 236.418C638.664 235.715 641.169 234.894 644.782 232.781C646.155 232.312 647.527 231.844 648.942 231.361C651.787 229.972 654.616 228.549 657.434 227.103C659.669 225.961 659.669 225.961 661.95 224.797C665.385 223.184 665.385 223.184 666.966 221.425C667.881 221.25 668.796 221.074 669.739 220.893C670.654 220.6 671.569 220.308 672.511 220.006C672.969 218.601 673.426 217.196 673.898 215.748C675.744 215.265 677.593 214.793 679.444 214.328C681.642 212.234 681.642 212.234 683.516 209.627C686.895 205.354 690.381 202.027 694.695 198.715C695.61 197.778 696.525 196.842 697.468 195.876C697.468 194.471 697.468 193.066 697.468 191.618C698.326 191.267 699.183 190.916 700.067 190.554C703.562 188.449 704.102 186.78 705.787 183.102C707.845 181.697 707.845 181.697 709.946 180.263C709.946 178.858 709.946 177.453 709.946 176.005C711.776 175.068 713.606 174.131 715.492 173.166C715.492 171.761 715.492 170.356 715.492 168.908C717.322 167.971 719.152 167.034 721.038 166.069C721.038 164.664 721.038 163.259 721.038 161.811C722.868 160.874 724.698 159.937 726.583 158.972C726.583 157.567 726.583 156.162 726.583 154.714C727.47 154.363 728.356 154.011 729.27 153.649C732.402 152.176 732.402 152.176 732.823 149.036C733.051 148.1 733.28 147.163 733.516 146.198C734.316 145.817 735.117 145.436 735.942 145.044C740.098 142.799 741.835 139.723 744.402 135.774C746.927 132.045 750.128 129.433 753.533 126.592C757.564 123.09 760.145 119.795 762.631 114.971C765.053 112.492 767.52 110.351 770.17 108.14C774.201 104.638 776.782 101.343 779.269 96.5188C782.042 93.68 782.042 93.68 786.028 90.4864C790.285 86.9043 792.991 82.8628 795.906 78.0667C798.679 75.2279 798.679 75.2279 801.886 72.8326C805.71 69.4633 808.214 66.1217 811.001 61.8656C813.176 58.6932 815.563 56.5898 818.61 54.2918C822.612 50.7797 824.996 47.1275 827.795 42.5818C830.568 39.743 830.568 39.743 833.861 37.2591C837.863 33.747 840.247 30.0948 843.046 25.5491C845.819 22.7103 845.819 22.7103 849.805 19.5167C854.062 15.9346 856.769 11.8931 859.684 7.09697C860.599 6.16017 861.514 5.22337 862.457 4.25818C864.312 7.74379 866.16 11.2335 868.002 14.7262C868.796 16.2137 868.796 16.2137 869.606 17.7313C873.548 25.2275 873.548 25.2275 873.548 28.3879C874.463 28.8563 875.378 29.3247 876.321 29.8073C877.282 32.6335 878.203 35.4737 879.094 38.3236C880.009 39.7288 880.924 41.134 881.867 42.5818C882.165 44.4591 882.165 44.4591 882.468 46.3743C883.438 52.2061 885.385 57.3243 887.5 62.8082C891.572 73.4561 891.572 73.4561 891.572 76.6473C892.487 77.1157 893.402 77.5841 894.345 78.0667C895.586 82.4345 896.479 86.8404 897.421 91.2848C897.958 93.173 897.958 93.173 898.505 95.0994C899.42 95.5678 900.335 96.0362 901.278 96.5188C901.796 98.8723 902.247 101.241 902.664 103.616C904.538 109.243 906.697 114.758 908.816 120.294C909.382 121.807 909.948 123.32 910.531 124.879C911.078 126.315 911.626 127.752 912.191 129.231C912.69 130.546 913.189 131.862 913.704 133.216C914.875 136.486 914.875 136.486 917.915 137.681C917.915 140.492 917.915 143.302 917.915 146.198C918.83 146.666 919.745 147.134 920.688 147.617C922.074 151.875 922.074 151.875 922.681 154.891C922.938 155.77 923.196 156.648 923.461 157.553C924.376 158.021 925.291 158.49 926.234 158.972C926.726 161.806 927.185 164.645 927.62 167.488C928.537 169.385 929.462 171.277 930.393 173.166C931.132 175.458 931.824 177.766 932.473 180.086C932.829 181.324 933.184 182.563 933.551 183.839C933.881 185.001 934.212 186.163 934.553 187.36C935.388 190.228 936.276 193.083 937.326 195.876C938.241 196.345 939.156 196.813 940.098 197.296C940.098 199.169 940.098 201.043 940.098 202.973C941.014 203.442 941.929 203.91 942.871 204.393C943.377 206.749 943.829 209.117 944.258 211.49C946.263 217.361 948.499 223.14 950.726 228.927C951.799 231.723 952.856 234.525 953.912 237.327C954.59 239.102 955.27 240.876 955.951 242.65C956.874 245.068 956.874 245.068 957.816 247.536C959.134 251.407 959.134 251.407 962.282 252.652C963.062 255.934 963.062 255.934 963.668 259.749C964.194 262.853 964.194 262.853 965.055 265.427C965.97 265.895 966.885 266.363 967.828 266.846C968.34 269.676 968.793 272.517 969.214 275.362C971.041 281.271 973.227 287.042 975.367 292.839C975.932 294.413 976.498 295.988 977.081 297.61C977.629 299.104 978.176 300.598 978.741 302.137C979.24 303.502 979.74 304.868 980.254 306.275C981.404 309.648 981.404 309.648 984.465 310.847C984.927 314.159 985.39 317.471 985.852 320.783C986.767 321.251 987.682 321.72 988.625 322.202C989.304 324.615 989.304 324.615 989.832 327.752C991.093 334.142 993.15 339.872 995.517 345.909C1001.66 361.678 1007.74 380.417 1002.49 397.43C1002.26 398.631 1002.03 399.831 1001.8 401.067C1001.1 404.527 1001.1 404.527 999.716 408.785C996.534 421.958 994.72 433.375 1001.1 445.69C1002.02 446.626 1002.93 447.563 1003.88 448.528C1004.1 449.963 1004.33 451.397 1004.57 452.875C1004.8 454.251 1005.03 455.627 1005.26 457.045C1006.18 457.513 1007.09 457.982 1008.04 458.464C1008.96 461.776 1009.88 465.088 1010.81 468.4C1011.72 468.868 1012.64 469.337 1013.58 469.819C1013.78 471.078 1013.98 472.337 1014.19 473.634C1015.03 478.731 1016.8 482.293 1019.13 486.852C1019.33 487.708 1019.52 488.565 1019.73 489.447C1021.09 494.806 1023.67 499.658 1025.98 504.65C1027.45 508.143 1027.45 508.143 1027.45 510.982C1028.36 511.45 1029.28 511.919 1030.22 512.401C1031.6 516.659 1031.6 516.659 1032.19 519.286C1033.97 526.085 1037.11 532.483 1039.84 538.926C1040.78 541.205 1040.78 541.205 1041.75 543.531C1042.36 544.974 1042.97 546.416 1043.6 547.903C1044.16 549.227 1044.72 550.551 1045.29 551.915C1046.59 555.194 1046.59 555.194 1049.63 556.402C1049.89 558.203 1049.89 558.203 1050.15 560.04C1051.08 565.264 1052.8 568.923 1055.26 573.535C1056.56 576.274 1056.56 576.274 1057.25 579.368C1057.48 580.22 1057.71 581.073 1057.95 581.951C1058.86 582.42 1059.78 582.888 1060.72 583.371C1061.45 586.005 1061.45 586.005 1062.02 589.315C1063.13 594.998 1064.97 599.535 1067.65 604.662C1067.65 605.599 1067.65 606.535 1067.65 607.501C1068.57 607.969 1069.48 608.437 1070.43 608.92C1070.9 611.283 1071.36 613.649 1071.81 616.017C1072.73 616.954 1073.64 617.891 1074.59 618.856C1075.57 621.444 1075.57 621.444 1076.49 624.561C1078.71 631.684 1081.43 638.508 1084.29 645.381C1084.77 646.538 1085.24 647.695 1085.73 648.888C1088.29 655.08 1091.05 661.102 1094 667.115C1094.22 668.14 1094.45 669.164 1094.69 670.22C1095.19 672.956 1095.19 672.956 1097.46 674.744C1099.54 677.051 1099.54 677.051 1100.15 680.903C1100.97 685.847 1102.44 689.78 1104.4 694.372C1105.08 695.997 1105.77 697.621 1106.47 699.295C1107.19 700.971 1107.9 702.647 1108.64 704.374C1110.06 707.721 1111.48 711.07 1112.89 714.421C1113.52 715.898 1114.15 717.375 1114.8 718.897C1116.18 722.471 1116.18 722.471 1116.18 725.31C1117.09 725.779 1118.01 726.247 1118.95 726.73C1119.79 729.175 1119.79 729.175 1120.6 732.496C1122.83 740.709 1126.13 748.288 1129.58 756.027C1132.82 763.363 1132.82 763.363 1132.82 766.473C1133.73 766.941 1134.65 767.41 1135.59 767.892C1136.82 771.515 1137.72 775.182 1138.67 778.892C1139.43 782.334 1139.43 782.334 1142.52 783.505C1143.06 786.433 1143.22 789.317 1143.43 792.288C1143.59 793.137 1143.75 793.986 1143.91 794.861C1144.82 795.329 1145.74 795.797 1146.68 796.28C1147.72 798.925 1147.72 798.925 1148.67 802.401C1149.2 804.298 1149.2 804.298 1149.74 806.232C1151.58 813.302 1153.32 820.396 1155 827.507C1153.84 827.707 1153.84 827.707 1152.66 827.911C1148.64 829.184 1145.91 831.26 1142.52 833.805C1138.45 836.846 1134.56 839.435 1130.04 841.701C1129.06 842.754 1129.06 842.754 1128.05 843.83C1125.28 846.549 1122.54 847.455 1118.95 848.798C1115.82 850.299 1112.91 851.943 1109.94 853.765C1106.98 855.583 1104.01 857.155 1100.93 858.733C1099.78 859.436 1098.64 860.139 1097.46 860.862C1094.5 862.682 1091.54 864.253 1088.45 865.83C1086.71 866.809 1084.98 867.8 1083.25 868.802C1082.29 869.357 1081.33 869.911 1080.35 870.482C1079.36 871.055 1078.37 871.628 1077.36 872.218C1075.39 873.357 1073.43 874.496 1071.47 875.633C1070.6 876.135 1069.74 876.637 1068.84 877.155C1066.17 878.659 1063.46 880.057 1060.72 881.444C1054.05 885.077 1054.05 885.077 1048.24 889.96C1047.33 889.96 1046.41 889.96 1045.47 889.96C1044.57 890.97 1044.57 890.97 1043.65 892C1041.31 894.218 1041.31 894.218 1038.15 894.806C1033.82 895.76 1030.87 897.445 1027.1 899.807C1025.89 900.552 1024.68 901.296 1023.44 902.064C1020.36 903.912 1020.36 903.912 1019.13 906.993C1017.29 907.495 1015.44 907.965 1013.58 908.412C1012.21 909.349 1010.84 910.286 1009.42 911.251C1007.12 912.212 1004.81 913.157 1002.49 914.09C997.15 916.733 991.897 919.545 986.632 922.34C985.212 923.08 983.792 923.82 982.329 924.583C973.646 929.155 973.646 929.155 965.873 935.131C961.969 938.488 960.23 938.784 955.35 939.639C951.745 941.504 948.271 943.431 944.778 945.494C942.572 946.776 940.366 948.056 938.16 949.336C936.941 950.045 935.723 950.755 934.467 951.485C929.905 954.114 925.315 956.691 920.721 959.261C918.195 960.678 915.669 962.097 913.144 963.516C911.485 964.446 909.825 965.373 908.163 966.297C899.651 971.035 891.904 975.657 884.64 982.221C883.239 982.689 881.838 983.157 880.394 983.64C871.433 986.763 867.224 995.249 862.803 1003.25C862.21 1004.3 861.618 1005.35 861.007 1006.44C859.168 1009.71 857.345 1013 855.524 1016.29C854.382 1018.33 853.239 1020.37 852.096 1022.42C846.467 1032.53 841.057 1042.7 836.114 1053.19C834.003 1057.59 831.664 1061.77 829.182 1065.96C828.724 1066.9 828.267 1067.84 827.795 1068.8C826.88 1070.21 825.965 1071.61 825.022 1073.06C824.565 1074 824.107 1074.94 823.636 1075.9C822.921 1076.57 822.206 1077.25 821.469 1077.94C819.007 1080.18 819.007 1080.18 819.476 1084.42C817.902 1086.03 816.259 1087.57 814.624 1089.12C811.192 1092.9 810.867 1093.96 809.771 1098.61C806.912 1100.39 806.912 1100.39 804.225 1101.45C804.225 1102.85 804.225 1104.26 804.225 1105.71C800.726 1110.06 798.358 1111.51 793.134 1112.8C792.676 1114.21 792.219 1115.62 791.747 1117.06C790.375 1117.06 789.002 1117.06 787.588 1117.06C787.13 1118.47 786.673 1119.87 786.201 1121.32C784.829 1121.32 783.456 1121.32 782.042 1121.32C779.598 1122.57 779.598 1122.57 777.135 1124.33C776.216 1124.95 775.298 1125.58 774.351 1126.23C773.401 1126.89 772.45 1127.56 771.47 1128.24C770.509 1128.89 769.547 1129.55 768.556 1130.22C763.386 1133.51 763.386 1133.51 759.858 1138.35C758.657 1138.62 758.657 1138.62 757.432 1138.89C754.048 1139.62 754.048 1139.62 751.02 1142.52C747.045 1145.72 743.838 1146.69 739.062 1148.29C736.472 1149.54 733.908 1150.84 731.371 1152.19C729.972 1152.94 728.572 1153.69 727.13 1154.46C725.692 1155.23 724.253 1156.01 722.771 1156.81C721.31 1157.58 719.85 1158.36 718.346 1159.16C710.874 1162.94 710.874 1162.94 704.4 1168.16C701.454 1167.63 701.454 1167.63 698.854 1166.74C696.505 1158.32 698.835 1151.89 701.367 1143.85C701.747 1142.59 702.127 1141.32 702.518 1140.01C705.354 1130.7 705.354 1130.7 707.263 1126.91C708.845 1123.91 708.845 1123.91 709.253 1119.19C709.883 1114.67 710.793 1112.49 712.719 1108.55C712.948 1106.82 713.176 1105.09 713.412 1103.31C713.641 1101.76 713.87 1100.21 714.105 1098.61C715.02 1098.14 715.935 1097.67 716.878 1097.19C717.352 1094.41 717.352 1094.41 717.447 1091.06C718.14 1082.34 720.449 1074.45 723.031 1066.14C723.464 1064.7 723.897 1063.25 724.344 1061.76C727.572 1051.14 727.572 1051.14 729.46 1047.39C731.051 1044.38 731.051 1044.38 731.436 1039.44C731.665 1037.89 731.894 1036.34 732.129 1034.74C733.044 1034.27 733.959 1033.8 734.902 1033.32C735.5 1030.49 735.5 1030.49 735.682 1027.2C736.114 1021.74 736.625 1016.97 739.078 1012.05C740.536 1009 741.055 1006.5 741.575 1003.16C742.823 996.306 744.659 989.749 746.687 983.108C746.983 982.128 747.28 981.149 747.585 980.14C748.753 976.374 749.926 972.745 751.67 969.213C753.213 966.013 753.727 963.022 754.313 959.51C755.115 954.698 756.293 951.058 758.472 946.736C759.65 942.594 760.378 938.375 761.158 934.139C762.206 928.697 763.579 923.579 765.404 918.348C765.633 917.353 765.862 916.357 766.098 915.332C766.888 912.298 768.16 909.778 769.564 906.993C770.804 903.184 771.587 899.568 772.337 895.638C773.205 891.445 774.579 888.085 776.496 884.282C778.027 879.58 779.144 874.902 780.228 870.072C784.462 851.78 790.175 834.001 795.906 816.151C796.364 817.088 796.822 818.025 797.293 818.99C798.208 818.99 799.123 818.99 800.066 818.99C802.88 823.139 804.677 826.818 805.612 831.765C806.152 834.806 806.152 834.806 806.998 837.442C807.913 837.911 808.828 838.379 809.771 838.862C810.695 842.174 811.62 845.486 812.544 848.798C813.459 849.266 814.374 849.734 815.317 850.217C815.948 853.215 816.573 856.215 817.168 859.222C818.819 865.973 821.721 872.186 824.502 878.516C825.651 881.159 826.796 883.804 827.936 886.45C828.441 887.603 828.946 888.755 829.467 889.943C830.568 892.799 830.568 892.799 830.568 895.638C831.483 895.638 832.398 895.638 833.341 895.638C833.798 896.106 834.256 896.574 834.727 897.057C837.579 895.748 839.855 894.687 841.979 892.305C845.425 889.011 849.285 887.068 853.445 884.815C855.032 883.947 856.619 883.08 858.254 882.187C862.457 880.024 862.457 880.024 866.616 878.605C867.474 877.902 868.332 877.2 869.216 876.476C872.536 874.076 875.106 873.494 879.094 872.927C879.094 871.99 879.094 871.054 879.094 870.088C880.324 869.737 881.553 869.386 882.82 869.024C887.466 867.505 887.466 867.505 890.879 864.411C894.705 861.277 898.047 860.275 902.664 858.733C903.35 858.031 904.037 857.328 904.744 856.604C906.823 854.475 906.823 854.475 910.809 853.144C915.268 851.875 915.268 851.875 918.695 848.709C922.074 845.959 922.074 845.959 925.627 845.249C929.174 844.843 929.174 844.843 931.422 841.983C935.172 838.244 939.022 836.114 943.651 833.628C945.226 832.773 946.8 831.919 948.423 831.038C952.577 828.926 952.577 828.926 956.736 827.507C957.565 826.833 958.395 826.16 959.249 825.466C962.282 823.248 962.282 823.248 966.528 821.829C970.558 820.767 970.558 820.767 972.68 818.281C975.664 815.226 979.109 814.61 983.079 813.313C983.994 812.376 984.909 811.439 985.852 810.474C982.444 804.087 978.143 798.944 973.46 793.53C971.839 791.634 970.217 789.738 968.597 787.841C967.366 786.405 967.366 786.405 966.11 784.94C935.939 749.667 935.939 749.667 935.939 745.182C938.669 742.705 941.386 740.373 944.258 738.085C945.23 737.294 946.202 736.504 947.204 735.69C949.829 733.809 952.47 732.414 955.35 730.988C956.722 730.051 958.095 729.114 959.509 728.149C965.055 724.364 970.601 720.579 976.146 716.794C977.062 715.857 977.977 714.92 978.919 713.955C980.306 712.536 980.306 712.536 984.465 711.116C985.38 710.18 986.295 709.243 987.238 708.278C988.625 706.858 988.625 706.858 992.784 705.439C998.696 702.934 1003.53 698.694 1008.04 694.084C1008.09 691.245 1008.09 688.405 1008.04 685.567C1007.12 685.099 1006.2 684.63 1005.26 684.148C1005.26 682.274 1005.26 680.401 1005.26 678.47C1004.35 678.002 1003.43 677.533 1002.49 677.051C1001.6 673.78 1001.07 670.5 1000.5 667.159C1000.24 666.208 999.981 665.257 999.716 664.276C998.801 663.808 997.886 663.34 996.943 662.857C995.61 660.027 995.61 660.027 994.246 656.348C993.755 655.027 993.263 653.706 992.757 652.345C992.251 650.954 991.745 649.563 991.224 648.131C990.708 646.751 990.191 645.372 989.659 643.95C985.852 633.613 985.852 633.613 985.852 628.791C984.937 628.323 984.022 627.855 983.079 627.372C983.079 625.499 983.079 623.625 983.079 621.695C982.164 621.226 981.249 620.758 980.306 620.275C978.968 617.07 978.968 617.07 977.62 613.001C975.5 606.773 973.194 600.759 970.601 594.726C968.788 590.429 967.828 588.077 967.828 583.371C966.913 582.902 965.998 582.434 965.055 581.951C964.593 579.113 964.13 576.274 963.668 573.435C962.753 572.967 961.838 572.498 960.895 572.016C960.895 570.142 960.895 568.269 960.895 566.338C959.98 565.87 959.065 565.401 958.122 564.919C956.636 561.715 955.28 558.526 953.963 555.249C938.363 517.791 918.411 482.265 893.11 450.752C891.572 448.528 891.572 448.528 891.572 445.69C890.752 445.329 889.932 444.969 889.086 444.597C885.689 442.659 883.897 440.68 881.434 437.617C877.339 432.635 873.019 428.082 868.398 423.611C866.616 421.56 866.616 421.56 866.616 418.721C865.458 418.194 865.458 418.194 864.276 417.657C860.482 415.557 857.359 413.136 854.138 410.205C854.138 409.268 854.138 408.331 854.138 407.366C853.108 407.044 852.079 406.722 851.018 406.39C846.497 404.181 844.531 401.568 841.66 397.43C843.566 393.226 845.824 389.735 848.592 386.075C849.507 384.67 850.422 383.265 851.365 381.817C852.78 381.114 852.78 381.114 854.225 380.398C857.401 379.124 857.401 379.124 858.297 374.72C860.146 373.774 861.994 372.827 863.843 371.881C866.112 369.099 866.112 369.099 868.002 366.204C868.918 365.267 869.833 364.33 870.775 363.365C871.69 361.96 872.606 360.554 873.548 359.107C874.263 358.463 874.978 357.819 875.715 357.155C878.309 354.153 878.367 351.658 879.094 347.752C880.124 346.039 880.124 346.039 881.174 344.292C883.525 340.181 884.03 336.823 884.64 332.138C885.098 331.201 885.555 330.265 886.026 329.299C886.357 324.961 886.283 320.609 886.286 316.259C886.303 315.068 886.32 313.878 886.338 312.652C886.355 305.348 885.463 299.404 883.254 292.395C882.871 290.427 882.5 288.457 882.138 286.485C880.321 277.907 876.788 270.072 873.375 262.056C872.094 259.031 870.819 256.004 869.551 252.974C868.988 251.65 868.425 250.327 867.845 248.963C866.616 245.555 866.616 245.555 866.616 241.297C865.701 240.829 864.786 240.36 863.843 239.878C862.662 236.784 862.662 236.784 861.59 232.958C861.229 231.703 860.868 230.448 860.496 229.154C859.684 225.684 859.684 225.684 859.684 221.425C858.769 220.957 857.854 220.489 856.911 220.006C857.368 219.069 857.826 218.132 858.297 217.167C857.382 216.699 856.467 216.23 855.524 215.748C855.982 214.811 856.439 213.874 856.911 212.909C855.996 212.441 855.081 211.972 854.138 211.49C854.595 210.553 855.053 209.616 855.524 208.651C854.609 208.183 853.694 207.714 852.751 207.232C853.209 206.295 853.666 205.358 854.138 204.393C853.223 204.393 852.308 204.393 851.365 204.393C851.822 202.519 852.28 200.646 852.751 198.715C851.836 198.247 850.921 197.778 849.978 197.296C850.436 196.359 850.894 195.422 851.365 194.457C850.45 193.989 849.535 193.52 848.592 193.038C849.05 192.101 849.507 191.164 849.978 190.199C849.063 189.73 848.148 189.262 847.206 188.779C847.663 187.843 848.121 186.906 848.592 185.941C847.677 185.472 846.762 185.004 845.819 184.521C845.289 182.17 844.829 179.802 844.433 177.424C843.975 176.487 843.518 175.551 843.046 174.585C843.504 173.649 843.961 172.712 844.433 171.747C843.518 171.278 842.603 170.81 841.66 170.327C840.528 166.873 840.528 166.873 839.493 162.609C838.191 157.095 838.191 157.095 836.114 151.875C831.923 154.34 831.923 154.34 827.795 157.553C827.566 158.49 827.338 159.426 827.102 160.392C825.97 165.026 821.838 166.35 818.09 168.908C817.589 170.79 817.123 172.683 816.703 174.585C814.393 176.005 812.082 177.424 809.771 178.844C809.571 179.751 809.371 180.659 809.165 181.594C807.912 186.294 803.901 187.609 800.066 190.199C800.066 191.604 800.066 193.009 800.066 194.457C799.208 194.779 798.35 195.101 797.466 195.433C793.658 197.841 793.319 200.209 791.747 204.393C790.375 204.861 789.002 205.33 787.588 205.812C784.466 209.13 784.466 209.13 781.349 213.175C780.276 214.513 779.204 215.85 778.099 217.228C775.186 221.318 773.021 225.356 770.95 229.942C770.035 229.942 769.12 229.942 768.177 229.942C765.599 233.621 763.225 237.243 761.245 241.297C759.858 242.716 758.472 244.136 757.086 245.555C756.628 246.492 756.171 247.429 755.699 248.394C754.313 249.813 752.926 251.233 751.54 252.652C751.082 253.589 750.625 254.526 750.153 255.491C748.767 256.91 747.38 258.33 745.994 259.749C744.444 262.755 744.444 262.755 743.221 266.846C742.306 266.846 741.391 266.846 740.448 266.846C740.705 267.929 740.963 269.012 741.228 270.128C741.834 273.943 741.834 273.943 740.448 278.201C740.038 281.527 739.747 284.854 739.452 288.192C739.062 290.976 739.062 290.976 737.675 292.395C737.72 295.231 737.77 298.067 737.897 300.9C737.675 303.75 737.675 303.75 734.902 308.008C734.477 310.785 734.075 313.565 733.689 316.347C732.408 322.009 731.8 324.319 727.017 327.586C722.597 329.388 722.597 329.388 718.275 330.769C712.711 332.596 708.531 335.006 704.4 339.235C703.014 340.655 703.014 340.655 700.327 341.098C697.202 341.781 697.202 341.781 696.081 344.913C695.624 345.85 695.166 346.786 694.695 347.752C693.78 347.956 692.865 348.161 691.922 348.372C691.007 348.636 690.092 348.899 689.149 349.171C688.183 351.519 687.262 353.887 686.376 356.268C683.516 358.663 683.516 358.663 680.83 360.526C680.373 361.463 679.915 362.4 679.444 363.365C678.588 364.4 677.732 365.436 676.85 366.503C667.518 379.018 660.629 398.672 661.42 414.463C660.962 415.4 660.505 416.337 660.033 417.302C659.68 420.151 659.329 423.001 659.037 425.857C658.647 428.657 658.647 428.657 657.26 432.915C656.345 432.915 655.43 432.915 654.487 432.915C654.945 435.257 655.402 437.599 655.874 440.012C654.959 440.012 654.044 440.012 653.101 440.012C653.358 441.066 653.616 442.12 653.881 443.206C654.476 447.038 654.281 449.162 653.101 452.787C652.186 452.787 651.271 452.787 650.328 452.787C650.614 453.899 650.9 455.012 651.195 456.158C651.366 457.387 651.538 458.617 651.715 459.884C650.799 460.82 649.884 461.757 648.942 462.722C646.892 468.965 646.004 475.225 646.169 481.796C646.169 483.464 646.169 485.133 646.169 486.852C645.254 487.789 644.339 488.726 643.396 489.691C642.53 492.824 641.798 495.997 641.143 499.183C640.782 500.887 640.421 502.59 640.049 504.345C639.248 509.49 639.198 514.301 639.236 519.498C638.779 519.967 638.321 520.435 637.85 520.918C637.531 523.76 637.214 526.602 636.908 529.445C636.398 532.688 635.155 535.051 633.691 537.95C633.691 539.121 633.691 540.292 633.691 541.499C633.691 545.484 632.629 547.221 630.918 550.725C630.86 553.09 630.86 555.457 630.918 557.822C630.515 559.729 630.072 561.629 629.531 563.499C628.616 563.499 627.701 563.499 626.758 563.499C626.579 564.776 626.579 564.776 626.395 566.078C624.585 578.032 622.055 589.777 619.378 601.557C617.745 608.959 616.831 615.538 617.053 623.114C616.595 623.582 616.138 624.051 615.667 624.533C615.348 627.373 615.031 630.214 614.724 633.055C614.215 636.3 613.014 638.686 611.507 641.566C611.507 643.44 611.507 645.313 611.507 647.244C610.592 647.244 609.677 647.244 608.734 647.244C609.192 649.586 609.649 651.928 610.121 654.341C609.206 654.341 608.291 654.341 607.348 654.341C607.605 655.394 607.862 656.448 608.128 657.534C608.723 661.366 608.528 663.49 607.348 667.115C606.433 667.115 605.518 667.115 604.575 667.115C604.832 668.198 605.09 669.281 605.355 670.397C606.174 675.551 604.513 678.642 602.755 683.527C600.547 690.321 598.937 697.222 597.383 704.197C597.134 705.281 596.886 706.365 596.631 707.482C595.21 714.034 594.758 719.982 594.87 726.73C594.412 727.198 593.955 727.666 593.483 728.149C592.973 731.454 592.509 734.766 592.097 738.085C591.182 738.085 590.267 738.085 589.324 738.085C589.581 739.139 589.838 740.193 590.104 741.278C590.699 745.111 590.504 747.235 589.324 750.859C588.409 750.859 587.494 750.859 586.551 750.859C586.808 751.943 587.066 753.026 587.331 754.142C587.937 757.956 587.937 757.956 586.551 762.215C586.351 763.678 586.15 765.142 585.944 766.65C585.687 767.997 585.43 769.343 585.164 770.731C584.249 771.199 583.334 771.668 582.391 772.15C581.746 774.841 581.746 774.841 581.525 777.917C581.353 779.761 581.182 781.605 581.005 783.505C578.389 783.145 578.389 783.145 575.459 782.086C573.959 779.563 573.959 779.563 572.946 776.497C572.594 775.489 572.242 774.481 571.879 773.442C571.3 770.731 571.3 770.731 572.686 767.892C571.771 767.424 570.856 766.955 569.913 766.473C570.371 765.536 570.828 764.599 571.3 763.634C570.385 763.634 569.47 763.634 568.527 763.634C568.984 761.76 569.442 759.887 569.913 757.956C568.998 757.488 568.083 757.02 567.14 756.537C566.593 753.239 566.139 749.923 565.754 746.601C564.999 743.07 564.003 739.687 562.981 736.222C561.638 731.151 560.933 726.246 560.208 721.052C559.578 718.794 558.945 716.537 558.285 714.288C557.082 709.801 556.087 705.278 555.095 700.737C554.718 699.015 554.341 697.294 553.953 695.52C553.276 691.245 553.276 691.245 554.662 688.406C553.747 688.406 552.832 688.406 551.889 688.406C551.805 687.533 551.721 686.661 551.635 685.761C551.46 684.04 551.46 684.04 551.283 682.285C551.17 681.149 551.058 680.012 550.941 678.842C550.568 675.403 550.568 675.403 549.116 671.373C549.574 670.437 550.031 669.5 550.503 668.535C549.588 668.535 548.673 668.535 547.73 668.535C547.646 667.662 547.562 666.789 547.475 665.89C547.301 664.169 547.301 664.169 547.123 662.413C547.011 661.277 546.898 660.141 546.782 658.97C546.409 655.532 546.409 655.532 544.957 651.502C545.414 650.565 545.872 649.628 546.343 648.663C545.428 648.195 544.513 647.726 543.571 647.244C543.094 644.61 543.094 644.61 542.877 641.3C542.393 635.774 541.193 631.21 539.411 625.953C538.951 623.741 538.521 621.522 538.111 619.299C537.124 613.982 535.899 608.809 534.472 603.597C530.569 589.237 530.569 589.237 532.479 583.371C531.564 583.371 530.649 583.371 529.706 583.371C530.163 581.497 530.621 579.624 531.092 577.693C530.177 577.693 529.262 577.693 528.319 577.693C526.76 568.112 526.76 568.112 528.319 564.919C527.404 564.45 526.489 563.982 525.547 563.499C525.146 560.672 524.753 557.84 524.501 554.994C524.219 551.856 524.219 551.856 522.774 547.886C522.302 545.049 521.84 542.21 521.387 539.37C520.61 535.848 519.635 532.451 518.614 528.99C517.271 523.919 516.566 519.015 515.841 513.821C515.211 511.561 514.578 509.302 513.919 507.051C512.722 502.594 511.72 498.104 510.729 493.594C510.352 491.889 509.974 490.184 509.586 488.427C508.909 484.013 508.909 484.013 510.295 479.755C509.38 479.755 508.465 479.755 507.523 479.755C507.98 477.882 508.438 476.008 508.909 474.078C507.994 474.078 507.079 474.078 506.136 474.078C506.052 473.205 505.968 472.332 505.881 471.433C505.707 469.712 505.707 469.712 505.529 467.956C505.417 466.82 505.304 465.684 505.188 464.513C504.815 461.075 504.815 461.075 503.363 457.045C503.821 456.108 504.278 455.171 504.75 454.206C503.835 454.206 502.919 454.206 501.977 454.206C501.893 453.35 501.809 452.493 501.722 451.611C501.606 450.477 501.49 449.342 501.37 448.174C501.257 447.054 501.145 445.934 501.029 444.78C500.411 440.065 499.208 435.768 497.817 431.23C496.765 427.124 496.172 423.767 495.824 419.608C495.287 413.82 493.839 408.82 491.93 403.363C490.957 400.483 490.19 397.643 489.499 394.68C484.965 375.742 478.378 356.248 461.769 344.913C461.769 343.976 461.769 343.039 461.769 342.074C460.397 342.074 459.024 342.074 457.61 342.074C457.61 341.137 457.61 340.2 457.61 339.235C456.237 339.235 454.865 339.235 453.451 339.235C452.064 337.816 450.678 336.396 449.291 334.977C443.395 331.638 438.288 329.776 431.7 328.678C430.642 328.415 429.584 328.151 428.494 327.88C428.037 326.943 427.579 326.006 427.108 325.041C423.604 324.111 423.604 324.111 420.175 323.622C419.648 320.32 419.187 317.007 418.789 313.686C419.247 313.218 419.704 312.749 420.175 312.267C420.315 308.555 420.368 304.889 420.349 301.178C420.354 300.148 420.359 299.119 420.365 298.059C420.356 293.132 420.295 288.583 418.789 283.879C417.248 278.517 417.248 278.517 418.789 275.362C417.874 274.894 416.959 274.426 416.016 273.943C416.474 273.006 416.931 272.069 417.403 271.104C416.487 270.636 415.572 270.167 414.63 269.685C415.087 268.748 415.545 267.811 416.016 266.846C415.101 266.378 414.186 265.909 413.243 265.427C412.022 262.976 410.88 260.483 409.777 257.975C403.333 244.441 394.295 232.619 383.618 222.274C381.159 219.81 378.977 217.201 376.762 214.506C373.02 210.046 369.027 206.149 364.717 202.264C359.569 197.614 354.951 192.853 350.538 187.476C347.766 184.144 344.847 180.977 341.927 177.779C335.199 170.181 329.848 161.962 324.51 153.295C321.131 156.753 320.152 159.769 318.433 164.334C317.816 165.97 317.2 167.607 316.565 169.293C315.926 171.01 315.288 172.728 314.631 174.497C313.658 177.064 313.658 177.064 312.665 179.684C309.157 188.256 309.157 188.256 307.872 197.296C306.957 197.296 306.042 197.296 305.099 197.296C305.142 199.316 305.142 199.316 305.186 201.377C305.099 205.812 305.099 205.812 303.713 208.651C302.798 208.651 301.883 208.651 300.94 208.651C300.72 209.445 300.5 210.239 300.274 211.057C297.685 220.165 294.623 229.023 291.354 237.898C289.813 242.829 289.109 247.528 288.462 252.652C288.004 253.589 287.547 254.526 287.075 255.491C286.16 255.491 285.245 255.491 284.302 255.491C284.76 256.896 285.217 258.301 285.689 259.749C284.774 259.749 283.859 259.749 282.916 259.749C282.864 260.605 282.812 261.462 282.759 262.344C282.622 264.046 282.622 264.046 282.482 265.782C282.402 266.901 282.322 268.021 282.239 269.175C281.529 272.524 281.529 272.524 279.563 275.145C277.227 278.401 276.093 281.208 274.841 285.026C274.204 286.968 274.204 286.968 273.554 288.949C273.126 290.291 272.698 291.633 272.257 293.016C271.813 294.353 271.369 295.689 270.912 297.066C270.492 298.363 270.073 299.659 269.641 300.995C269.261 302.17 268.881 303.346 268.49 304.557C267.62 308.196 267.516 311.373 267.665 315.105C266.75 315.574 265.835 316.042 264.892 316.525C264.935 318.15 264.935 318.15 264.978 319.807C264.892 323.622 264.892 323.622 263.505 327.88C264.04 333.351 265.251 335.514 269.051 339.235C269.051 340.64 269.051 342.046 269.051 343.493C270.424 343.962 271.796 344.43 273.211 344.913C274.184 347.258 275.11 349.624 275.983 352.01C276.899 352.478 277.814 352.946 278.756 353.429C279.357 354.79 279.357 354.79 279.97 356.179C281.282 359.329 281.282 359.329 284.302 360.437C288.108 362.507 288.342 365.033 289.848 369.042C291.221 369.511 292.593 369.979 294.007 370.462C294.007 371.867 294.007 373.272 294.007 374.72C294.787 375.048 295.566 375.375 296.369 375.712C300.394 378.046 303.014 380.903 306.139 384.39C307.247 385.599 308.355 386.808 309.497 388.055C312.327 392.184 312.68 393.931 312.031 398.85C310.992 402.043 310.992 402.043 309.259 404.527C308.401 404.732 307.543 404.937 306.659 405.148C302.244 406.345 300.864 409.362 298.167 413.044C294.545 416.946 290.861 420.468 286.729 423.778C282.732 427.404 282.642 428.035 281.529 432.915C279.219 434.335 276.908 435.754 274.597 437.173C274.096 439.055 273.63 440.948 273.211 442.851C270.351 444.625 270.351 444.625 267.665 445.69C267.665 447.095 267.665 448.5 267.665 449.948C266.292 450.416 264.919 450.885 263.505 451.367C263.505 452.772 263.505 454.178 263.505 455.625C262.133 456.094 260.76 456.562 259.346 457.045C257.401 459.248 257.401 459.248 255.652 462.002C254.984 463.002 254.315 464.003 253.627 465.034C252.597 466.613 252.597 466.613 251.547 468.223C250.85 469.264 250.153 470.305 249.435 471.377C245.465 477.372 245.465 477.372 242.708 484.013C239.416 489.07 235.969 494.005 232.527 498.956C230.559 501.963 228.948 504.871 227.457 508.143C226.071 510.982 226.071 510.982 223.298 515.24C222.84 516.177 222.383 517.114 221.911 518.079C220.996 519.016 220.081 519.952 219.139 520.918C219.139 522.323 219.139 523.728 219.139 525.176C217.77 526.613 216.38 528.029 214.979 529.434C213.417 532.078 211.938 534.773 210.511 537.496C209.656 539.124 208.801 540.753 207.92 542.431C207.009 544.19 206.098 545.949 205.187 547.709C204.727 548.592 204.267 549.476 203.793 550.387C189.913 576.16 189.913 576.16 178.931 603.242C177.278 606.656 175.601 610.053 173.905 613.444C169.845 621.66 165.991 629.939 162.38 638.372C161.973 639.319 161.565 640.265 161.145 641.24C158.769 646.855 157.167 652.088 156.055 658.066C155.361 661.438 155.361 661.438 153.975 664.276C153.06 664.276 152.145 664.276 151.202 664.276C151.202 666.618 151.202 668.96 151.202 671.373C150.287 671.842 149.372 672.31 148.429 672.793C147.089 676.277 145.901 679.701 144.79 683.261C144.471 684.234 144.153 685.208 143.826 686.21C142.484 690.413 141.497 693.894 141.497 698.342C150.385 706.863 162.131 712.033 173.001 717.398C177.618 719.682 182.213 722.011 186.806 724.346C188.141 725.024 188.141 725.024 189.504 725.717C209.1 735.733 209.1 735.733 217.752 742.343C218.21 743.748 218.667 745.153 219.139 746.601C218.223 748.006 217.308 749.412 216.366 750.859C215.965 751.825 215.565 752.792 215.152 753.787C213.593 756.537 213.593 756.537 210.733 757.956C209.847 758.425 208.96 758.893 208.047 759.376C207.747 760.737 207.747 760.737 207.44 762.126C206.29 766.445 203.367 767.114 199.728 769.311C199.728 770.717 199.728 772.122 199.728 773.57C198.87 773.892 198.012 774.214 197.128 774.546C193.867 776.195 193.867 776.195 192.796 779.957C191.089 784.325 189.807 784.326 185.863 786.344C185.406 787.515 184.948 788.686 184.477 789.893C182.784 794.227 181.48 794.33 177.545 796.28C177.316 797.217 177.087 798.154 176.851 799.119C176.623 800.056 176.394 800.992 176.158 801.958C174.322 802.928 172.472 803.873 170.612 804.796C169.034 807.657 169.034 807.657 167.839 810.474C168.861 811.05 169.883 811.627 170.936 812.221C201.611 829.527 232.259 846.881 262.812 864.411C264.897 865.605 264.897 865.605 267.025 866.824C273.973 870.804 280.917 874.792 287.85 878.801C291.312 880.8 294.777 882.792 298.244 884.782C299.914 885.744 301.583 886.708 303.25 887.676C305.562 889.019 307.881 890.349 310.201 891.679C312.19 892.827 312.19 892.827 314.219 893.998C317.583 895.943 317.583 895.943 321.737 895.638C323.096 891.663 323.096 891.663 323.768 888.651C324.546 885.557 325.559 882.652 326.676 879.669C327.236 878.165 327.236 878.165 327.808 876.631C328.092 875.877 328.376 875.123 328.669 874.347C329.584 874.347 330.499 874.347 331.442 874.347C331.613 873.029 331.785 871.712 331.962 870.355C332.828 865.83 332.828 865.83 335.601 861.572C336.577 858.751 337.502 855.912 338.374 853.056C339.659 849.109 341.103 845.292 342.62 841.434C343.122 840.155 343.625 838.877 344.142 837.559C344.526 836.584 344.911 835.608 345.307 834.604C346.222 834.604 347.137 834.604 348.079 834.604C348.537 831.325 348.995 828.046 349.466 824.668C350.381 824.668 351.296 824.668 352.239 824.668C352.41 823.35 352.582 822.033 352.759 820.676C353.625 816.151 353.625 816.151 356.398 811.893C356.856 810.957 357.313 810.02 357.785 809.055C360.616 813.667 362.835 818.157 364.717 823.248C365.175 824.185 365.632 825.122 366.103 826.087C365.646 827.492 365.188 828.898 364.717 830.345C365.632 830.814 366.547 831.282 367.49 831.765C367.49 834.575 367.49 837.386 367.49 840.281C368.405 840.75 369.32 841.218 370.263 841.701C369.805 843.106 369.348 844.511 368.876 845.959C369.791 846.427 370.706 846.896 371.649 847.378C371.192 848.783 370.734 850.189 370.263 851.636C371.178 852.105 372.093 852.573 373.036 853.056C374.422 857.314 374.422 857.314 373.036 861.572C373.951 862.04 374.866 862.509 375.809 862.991C377.101 866.962 377.87 870.677 378.582 874.79C378.825 876.172 379.068 877.553 379.318 878.976C379.82 881.978 380.255 884.992 380.661 888.008C380.89 889.121 381.119 890.233 381.355 891.379C382.27 891.848 383.185 892.316 384.127 892.799C384.5 895.471 384.859 898.147 385.129 900.833C385.534 904.324 386.12 907.72 386.814 911.162C387.026 912.229 387.239 913.296 387.458 914.395C388.062 917.231 388.062 917.231 391.06 918.348C390.602 919.753 390.145 921.158 389.673 922.606C390.588 923.074 391.503 923.543 392.446 924.025C391.989 924.962 391.531 925.899 391.06 926.864C391.975 927.333 392.89 927.801 393.833 928.284C393.375 929.689 392.918 931.094 392.446 932.542C393.361 933.01 394.276 933.479 395.219 933.961C394.762 935.366 394.304 936.772 393.833 938.219C394.748 938.688 395.663 939.156 396.606 939.639C396.148 941.044 395.691 942.449 395.219 943.897C396.134 944.365 397.049 944.834 397.992 945.316C399.052 949.078 399.952 952.764 400.765 956.583C401.008 957.674 401.251 958.766 401.501 959.89C403.062 966.975 404.47 974.078 405.628 981.245C405.854 982.035 406.079 982.826 406.311 983.64C407.226 984.108 408.141 984.577 409.084 985.059C409.631 988.726 409.788 992.358 409.994 996.06C410.151 997.114 410.308 998.167 410.47 999.253C411.385 999.722 412.3 1000.19 413.243 1000.67C412.786 1002.08 412.328 1003.48 411.857 1004.93C412.772 1005.4 413.687 1005.87 414.63 1006.35C414.172 1007.29 413.715 1008.22 413.243 1009.19C414.158 1009.66 415.073 1010.13 416.016 1010.61C415.559 1012.01 415.101 1013.42 414.63 1014.87C415.545 1015.34 416.46 1015.8 417.403 1016.29C416.945 1017.69 416.487 1019.1 416.016 1020.54C416.931 1021.01 417.846 1021.48 418.789 1021.96C419.477 1024.88 420.145 1027.81 420.726 1030.75C421.656 1035.19 422.785 1039.53 423.956 1043.91C424.599 1046.32 424.599 1046.32 425.256 1048.77C426.153 1052.11 427.052 1055.44 427.953 1058.77C428.378 1060.37 428.803 1061.96 429.242 1063.6C429.631 1065.05 430.019 1066.49 430.42 1067.97C431.267 1071.64 431.267 1071.64 431.267 1075.9C432.182 1076.37 433.097 1076.84 434.04 1077.32C433.583 1078.73 433.125 1080.13 432.654 1081.58C433.569 1082.05 434.484 1082.51 435.427 1083C434.969 1083.93 434.511 1084.87 434.04 1085.84C434.955 1086.3 435.87 1086.77 436.813 1087.26C436.355 1088.66 435.898 1090.07 435.427 1091.51C436.342 1091.98 437.257 1092.45 438.199 1092.93C437.742 1093.87 437.284 1094.81 436.813 1095.77C437.728 1095.77 438.643 1095.77 439.586 1095.77C439.128 1098.11 438.671 1100.46 438.199 1102.87C439.114 1103.34 440.03 1103.81 440.972 1104.29C442.145 1107.89 442.891 1111.18 443.561 1114.9C445.394 1124.48 448.033 1133.8 450.629 1143.19C450.992 1144.52 451.354 1145.85 451.728 1147.22C452.225 1149.01 452.225 1149.01 452.731 1150.84C453.451 1153.97 453.451 1153.97 453.451 1158.23C454.366 1158.69 455.281 1159.16 456.223 1159.64C456.223 1162.46 456.223 1165.27 456.223 1168.16C457.138 1168.63 458.054 1169.1 458.996 1169.58C455.704 1170.47 455.704 1170.47 452.064 1171C451.149 1170.06 450.234 1169.13 449.291 1168.16C447.919 1167.69 446.546 1167.22 445.132 1166.74C444.217 1165.8 443.302 1164.87 442.359 1163.9C440.986 1163.43 439.614 1162.97 438.199 1162.48C436.813 1161.06 435.427 1159.64 434.04 1158.23C431.045 1156.49 428.074 1155.22 424.855 1153.97C421.562 1152.55 421.562 1152.55 418.789 1149.71C417.416 1149.24 416.044 1148.77 414.63 1148.29C413.715 1147.35 412.799 1146.42 411.857 1145.45C410.484 1144.98 409.111 1144.51 407.697 1144.03C407.24 1143.09 406.782 1142.16 406.311 1141.19C405.453 1140.99 404.595 1140.78 403.711 1140.57C400.203 1139.62 399.128 1138.1 396.606 1135.52C394.767 1135 392.918 1134.53 391.06 1134.1C390.145 1133.16 389.23 1132.22 388.287 1131.26C386.914 1130.79 385.542 1130.32 384.127 1129.84C384.127 1128.9 384.127 1127.96 384.127 1127C382.755 1127 381.382 1127 379.968 1127C379.053 1126.06 378.138 1125.13 377.195 1124.16C375.823 1123.69 374.45 1123.22 373.036 1122.74C373.036 1121.8 373.036 1120.87 373.036 1119.9C372.092 1119.81 371.148 1119.73 370.176 1119.64C364.78 1118.11 360.51 1115.28 356.398 1111.39C356.398 1110.45 356.398 1109.51 356.398 1108.55C355.154 1108.28 355.154 1108.28 353.885 1108.01C350.852 1107.13 350.852 1107.13 346.693 1104.29C346.693 1103.35 346.693 1102.41 346.693 1101.45C345.889 1101.38 345.084 1101.3 344.256 1101.23C339.617 1099.44 338.382 1096.5 335.775 1092.22C335.249 1091.36 334.724 1090.51 334.183 1089.62C328.089 1079.48 322.543 1069.01 316.899 1058.61C303.036 1033.14 288.423 1008.88 270.67 986.052C269.051 983.64 269.051 983.64 269.051 980.801C267.221 979.864 265.391 978.928 263.505 977.962C263.505 977.026 263.505 976.089 263.505 975.124C261.218 974.187 258.93 973.25 256.573 972.285C256.573 971.348 256.573 970.411 256.573 969.446C255.2 969.446 253.828 969.446 252.414 969.446C251.027 968.027 249.641 966.607 248.254 965.188C244.608 963.508 240.957 962.224 237.163 960.93C236.562 960.286 235.962 959.642 235.343 958.978C231.495 955.185 226.845 952.919 221.651 951.704C219.139 950.994 219.139 950.994 217.275 948.992C214.653 946.416 212.36 945.37 209 943.986C203.603 941.653 199.045 938.738 194.182 935.381C192.337 934.895 190.489 934.419 188.636 933.961C187.25 932.542 185.863 931.122 184.477 929.703C183.619 929.498 182.761 929.293 181.877 929.082C178.931 928.284 178.931 928.284 175.638 925.534C171.719 922.381 168.375 921.334 163.68 919.767C162.267 918.376 160.876 916.96 159.521 915.509C158.606 915.275 157.691 915.041 156.748 914.799C153.975 914.09 153.975 914.09 152.068 912.049C148.961 908.991 145.559 908.32 141.497 906.993C140.582 906.056 139.667 905.119 138.724 904.154C137.351 903.686 135.979 903.217 134.564 902.735C133.907 902.032 133.249 901.329 132.571 900.605C130.571 898.277 130.571 898.277 127.805 897.855C123.67 896.735 121.201 894.144 117.927 891.379C114.499 889.391 111.006 887.958 107.355 886.411C102.676 884.282 102.676 884.282 99.9028 881.444C98.5303 880.975 97.1577 880.507 95.7435 880.024C95.0858 879.322 94.4281 878.619 93.7504 877.895C91.726 875.553 91.726 875.553 88.8112 875.056C85.4068 874.185 84.3223 872.59 81.8788 870.088C80.9638 869.854 80.0487 869.62 79.1059 869.379C75.7258 868.514 74.5392 866.943 72.1736 864.411C71.2586 864.411 70.3435 864.411 69.4007 864.411C68.457 863.401 68.457 863.401 67.4943 862.371C65.4033 859.944 65.4033 859.944 62.4684 859.443C59.6955 858.733 59.6955 858.733 57.7891 856.693C55.5035 854.125 55.5035 854.125 51.3767 853.056C47.1864 851.626 45.9888 850.515 43.0579 847.378C41.2159 846.879 39.3677 846.402 37.5121 845.959C37.0545 845.022 36.597 844.085 36.1256 843.12C35.2677 842.915 34.4099 842.71 33.526 842.499C30.018 841.548 28.9429 840.025 26.4204 837.442C24.582 836.929 22.7333 836.453 20.8745 836.023C19.9595 835.086 19.0444 834.149 18.1016 833.184C16.9578 832.482 15.814 831.779 14.6355 831.055C11.1693 828.926 11.1693 828.926 8.39639 826.087C7.48132 825.941 6.56626 825.794 5.62346 825.644C2.85054 824.668 2.85054 824.668 1.11746 821.474C0.0851958 817.599 -0.145243 814.467 0.0776187 810.474C0.992683 810.006 1.90775 809.537 2.85054 809.055C3.32574 806.692 3.78452 804.325 4.237 801.958C7.52185 792.469 7.52185 792.469 11.1693 790.602C11.6835 787.773 12.1362 784.932 12.5558 782.086C13.4335 779.232 14.3456 776.388 15.3287 773.57C16.2438 773.57 17.1588 773.57 18.1016 773.57C18.5592 770.291 19.0167 767.012 19.4881 763.634C20.4031 763.634 21.3182 763.634 22.261 763.634C22.404 762.17 22.547 760.706 22.6943 759.198C23.6417 753.731 25.23 750.018 27.8068 745.182C28.2644 743.777 28.7219 742.371 29.1933 740.924C29.8796 739.811 30.5659 738.699 31.273 737.553C33.3481 733.835 34.1523 730.935 34.7392 726.73C35.6542 726.73 36.5693 726.73 37.5121 726.73C37.6837 725.237 37.8552 723.744 38.032 722.205C38.7757 717.561 39.7842 713.948 41.6715 709.697C42.5865 709.697 43.5016 709.697 44.4444 709.697C44.7018 707.37 44.7018 707.37 44.9643 704.995C45.8308 699.761 45.8308 699.761 48.6038 695.503C51.2881 690.454 52.8395 685.269 54.4529 679.784C55.5361 677.051 55.5361 677.051 58.309 675.631C58.7978 672.797 59.2542 669.957 59.6955 667.115C60.8082 663.836 61.9945 660.582 63.2483 657.357C63.8792 655.721 64.5101 654.085 65.1601 652.4C65.8866 650.55 65.8866 650.55 66.6278 648.663C67.5428 648.663 68.4579 648.663 69.4007 648.663C69.5723 647.287 69.7438 645.911 69.9206 644.494C70.2066 643.059 70.4925 641.625 70.7872 640.147C71.7022 639.678 72.6173 639.21 73.5601 638.727C74.0999 635.903 74.5568 633.061 74.9465 630.211C76.333 625.953 76.333 625.953 78.4127 622.582C80.4878 618.864 81.292 615.964 81.8788 611.759C82.7939 611.759 83.709 611.759 84.6518 611.759C84.9091 609.519 84.9091 609.519 85.1717 607.234C85.9154 602.59 86.9239 598.977 88.8112 594.726C89.7262 594.726 90.6413 594.726 91.5841 594.726C91.7557 593.409 91.9272 592.091 92.104 590.734C92.9705 586.21 92.9705 586.21 95.7435 581.951C97.4092 578.942 98.476 576.487 99.123 573.08C100.192 567.728 102.124 562.911 104.062 557.822C104.977 557.822 105.892 557.822 106.835 557.822C107.093 555.582 107.093 555.582 107.355 553.297C108.099 548.653 109.107 545.04 110.995 540.789C111.91 540.789 112.825 540.789 113.767 540.789C113.882 539.667 113.996 538.546 114.114 537.39C115.477 530.68 118.024 524.783 120.7 518.522C121.712 516.122 122.723 513.721 123.733 511.32C124.181 510.267 124.63 509.213 125.092 508.128C126.04 505.808 126.855 503.432 127.632 501.046C128.547 499.641 129.462 498.236 130.405 496.788C130.634 495.851 130.863 494.914 131.098 493.949C131.791 491.11 131.791 491.11 134.564 486.852C134.765 485.915 134.965 484.979 135.171 484.013C135.951 481.175 135.951 481.175 138.031 479.223C141.006 475.923 140.962 472.775 141.497 468.4C143.171 463.257 145.153 458.257 147.129 453.23C147.715 451.736 147.715 451.736 148.313 450.211C149.275 447.757 150.238 445.304 151.202 442.851C152.117 442.851 153.032 442.851 153.975 442.851C154.118 441.329 154.261 439.806 154.408 438.238C155.393 432.738 156.351 431.481 159.521 427.238C161.109 423.042 162.396 418.765 163.68 414.463C164.138 413.058 164.595 411.653 165.067 410.205C164.062 407.82 163.049 405.438 161.974 403.086C160.216 398.444 159.944 393.855 159.521 388.914C159.063 388.914 158.606 388.914 158.134 388.914C158.053 384.331 158.004 379.747 157.961 375.164C157.926 373.222 157.926 373.222 157.891 371.241C157.844 364.638 157.883 359.426 160.907 353.429C161.365 352.024 161.822 350.619 162.294 349.171C163.68 344.913 165.067 340.655 166.453 336.396C167.368 336.396 168.283 336.396 169.226 336.396C169.378 334.741 169.53 333.086 169.686 331.38C170.422 325.394 172.132 320.033 174.338 314.457C174.703 313.506 175.067 312.556 175.442 311.576C176.593 308.578 177.761 305.588 178.931 302.597C179.716 300.565 180.499 298.533 181.282 296.501C182.381 293.645 183.481 290.791 184.592 287.94C186.031 284.242 187.406 280.56 188.636 276.782C189.561 273.943 190.485 271.104 191.409 268.265C192.324 268.265 193.239 268.265 194.182 268.265C194.44 266.07 194.44 266.07 194.702 263.83C195.484 258.867 196.66 254.52 198.342 249.813C199.257 249.813 200.172 249.813 201.115 249.813C201.286 248.203 201.458 246.593 201.634 244.934C201.92 243.265 202.206 241.597 202.501 239.878C203.416 239.409 204.331 238.941 205.274 238.458C205.771 235.152 206.228 231.839 206.66 228.522C207.96 224.442 207.96 224.442 209.433 221.425C210.348 220.957 211.263 220.489 212.206 220.006C212.406 218.425 212.607 216.844 212.813 215.216C213.593 210.07 213.593 210.07 215.672 208.03C219.203 204.265 218.732 199.529 219.139 194.457C220.054 194.457 220.969 194.457 221.911 194.457C221.911 192.115 221.911 189.773 221.911 187.36C222.827 187.36 223.742 187.36 224.684 187.36C224.942 186.218 224.942 186.218 225.204 185.053C226.528 179.902 228.142 174.89 230.144 169.972C231.977 165.114 233.323 160.16 234.693 155.146C235.776 151.875 235.776 151.875 238.549 147.617C240.099 144.611 240.099 144.611 241.322 140.52C241.779 139.583 242.237 138.646 242.708 137.681C243.166 136.276 243.623 134.871 244.095 133.423C244.552 132.545 245.01 131.667 245.481 130.762C247.021 127.732 247.021 127.732 247.561 124.108C248.254 120.648 248.254 120.648 251.027 116.39C251.226 115.375 251.424 114.359 251.628 113.313C252.707 107.794 254.687 102.737 256.66 97.4946C257.05 96.4435 257.441 95.3923 257.843 94.3093C258.801 91.732 259.766 89.1572 260.732 86.583C261.647 86.583 262.563 86.583 263.505 86.583C263.505 84.241 263.505 81.899 263.505 79.4861C264.42 79.4861 265.335 79.4861 266.278 79.4861C266.536 77.5978 266.536 77.5978 266.798 75.6714C267.953 69.405 269.759 64.9145 273.211 59.6145C275.186 55.1651 276.511 50.6438 277.803 45.9529C280.135 37.8222 283.551 30.3584 287.075 22.7103C289.106 18.0315 291.038 13.3782 292.621 8.51636C293.986 5.66649 295.369 2.82612 296.78 0ZM287.075 24.1297C288.462 26.9685 288.462 26.9685 288.462 26.9685L287.075 24.1297ZM284.302 31.2267C285.689 34.0655 285.689 34.0655 285.689 34.0655L284.302 31.2267ZM281.529 38.3236C282.916 41.1624 282.916 41.1624 282.916 41.1624L281.529 38.3236ZM278.756 45.4206C280.143 48.2594 280.143 48.2594 280.143 48.2594L278.756 45.4206ZM260.732 90.8412C262.119 93.68 262.119 93.68 262.119 93.68L260.732 90.8412ZM257.959 97.9382C259.346 100.777 259.346 100.777 259.346 100.777L257.959 97.9382ZM255.187 105.035C256.573 107.874 256.573 107.874 256.573 107.874L255.187 105.035ZM237.163 151.875C238.549 154.714 238.549 154.714 238.549 154.714L237.163 151.875ZM234.39 158.972C235.776 161.811 235.776 161.811 235.776 161.811L234.39 158.972ZM219.139 198.715C220.525 201.554 220.525 201.554 220.525 201.554L219.139 198.715ZM214.979 210.07C216.366 212.909 216.366 212.909 216.366 212.909L214.979 210.07ZM209.433 224.264C210.82 227.103 210.82 227.103 210.82 227.103L209.433 224.264ZM208.047 228.522C209.433 231.361 209.433 231.361 209.433 231.361L208.047 228.522ZM520.001 235.619C520.001 236.088 520.001 236.556 520.001 237.039C523.203 237.039 526.406 237.039 529.706 237.039C529.706 236.57 529.706 236.102 529.706 235.619C526.503 235.619 523.3 235.619 520.001 235.619ZM542.184 237.039C542.184 237.507 542.184 237.976 542.184 238.458C544.929 238.458 547.674 238.458 550.503 238.458C550.503 237.99 550.503 237.521 550.503 237.039C547.758 237.039 545.012 237.039 542.184 237.039ZM560.208 238.458C560.208 238.927 560.208 239.395 560.208 239.878C562.953 239.878 565.698 239.878 568.527 239.878C568.527 239.409 568.527 238.941 568.527 238.458C565.782 238.458 563.036 238.458 560.208 238.458ZM581.005 239.878C581.005 240.346 581.005 240.814 581.005 241.297C592.901 241.297 604.797 241.297 617.053 241.297C617.053 240.829 617.053 240.36 617.053 239.878C605.157 239.878 593.261 239.878 581.005 239.878ZM198.342 254.072C199.728 256.91 199.728 256.91 199.728 256.91L198.342 254.072ZM195.569 261.168C196.955 264.007 196.955 264.007 196.955 264.007L195.569 261.168ZM191.409 272.524C192.796 275.362 192.796 275.362 192.796 275.362L191.409 272.524ZM187.25 283.879C188.636 286.718 188.636 286.718 188.636 286.718L187.25 283.879ZM183.091 295.234C184.477 298.073 184.477 298.073 184.477 298.073L183.091 295.234ZM180.318 302.331C181.704 305.17 181.704 305.17 181.704 305.17L180.318 302.331ZM177.545 309.428C178.931 312.267 178.931 312.267 178.931 312.267L177.545 309.428ZM887.413 310.847C887.413 315.063 887.413 319.278 887.413 323.622C887.87 323.622 888.328 323.622 888.799 323.622C888.799 319.406 888.799 315.191 888.799 310.847C888.342 310.847 887.884 310.847 887.413 310.847ZM176.158 313.686C177.545 316.525 177.545 316.525 177.545 316.525L176.158 313.686ZM174.772 317.944C176.158 320.783 176.158 320.783 176.158 320.783L174.772 317.944ZM171.999 325.041C173.385 327.88 173.385 327.88 173.385 327.88L171.999 325.041ZM170.612 329.299C171.999 332.138 171.999 332.138 171.999 332.138L170.612 329.299ZM166.453 340.655C167.839 343.493 167.839 343.493 167.839 343.493L166.453 340.655ZM165.067 344.913C166.453 347.752 166.453 347.752 166.453 347.752L165.067 344.913ZM159.521 360.526C160.907 363.365 160.907 363.365 160.907 363.365L159.521 360.526ZM156.748 432.915C158.134 435.754 158.134 435.754 158.134 435.754L156.748 432.915ZM149.815 449.948C151.202 452.787 151.202 452.787 151.202 452.787L149.815 449.948ZM147.043 457.045C148.429 459.884 148.429 459.884 148.429 459.884L147.043 457.045ZM124.859 510.982C126.246 513.821 126.246 513.821 126.246 513.821L124.859 510.982ZM120.7 520.918C122.086 523.756 122.086 523.756 122.086 523.756L120.7 520.918ZM117.927 528.015C119.313 530.853 119.313 530.853 119.313 530.853L117.927 528.015ZM109.608 547.886C110.995 550.725 110.995 550.725 110.995 550.725L109.608 547.886ZM102.676 564.919C104.062 567.758 104.062 567.758 104.062 567.758L102.676 564.919ZM87.4247 601.823C88.8112 604.662 88.8112 604.662 88.8112 604.662L87.4247 601.823ZM65.2413 655.76C66.6278 658.599 66.6278 658.599 66.6278 658.599L65.2413 655.76ZM62.4684 662.857C63.8548 665.696 63.8548 665.696 63.8548 665.696L62.4684 662.857ZM55.5361 679.89C56.9225 682.728 56.9225 682.728 56.9225 682.728L55.5361 679.89ZM47.2173 699.761C48.6038 702.6 48.6038 702.6 48.6038 702.6L47.2173 699.761ZM40.285 716.794C41.6715 719.633 41.6715 719.633 41.6715 719.633L40.285 716.794ZM25.0339 753.698C26.4204 756.537 26.4204 756.537 26.4204 756.537L25.0339 753.698ZM794.52 823.248C795.906 827.507 795.906 827.507 795.906 827.507L794.52 823.248ZM793.134 828.926C794.52 831.765 794.52 831.765 794.52 831.765L793.134 828.926ZM791.747 833.184C793.134 836.023 793.134 836.023 793.134 836.023L791.747 833.184ZM790.361 837.442C791.747 840.281 791.747 840.281 791.747 840.281L790.361 837.442ZM343.92 841.701C345.307 844.539 345.307 844.539 345.307 844.539L343.92 841.701ZM788.974 841.701C790.361 844.539 790.361 844.539 790.361 844.539L788.974 841.701ZM787.588 847.378C788.974 850.217 788.974 850.217 788.974 850.217L787.588 847.378ZM786.201 851.636C787.588 854.475 787.588 854.475 787.588 854.475L786.201 851.636ZM784.815 855.895C786.201 858.733 786.201 858.733 786.201 858.733L784.815 855.895ZM783.428 861.572C784.815 864.411 784.815 864.411 784.815 864.411L783.428 861.572ZM782.042 865.83C783.428 868.669 783.428 868.669 783.428 868.669L782.042 865.83ZM327.283 881.444C328.669 884.282 328.669 884.282 328.669 884.282L327.283 881.444ZM768.177 912.67C769.564 915.509 769.564 915.509 769.564 915.509L768.177 912.67ZM765.404 922.606C766.791 925.445 766.791 925.445 766.791 925.445L765.404 922.606ZM764.018 926.864C765.404 931.122 765.404 931.122 765.404 931.122L764.018 926.864ZM762.631 932.542C764.018 935.381 764.018 935.381 764.018 935.381L762.631 932.542ZM761.245 936.8C762.631 939.639 762.631 939.639 762.631 939.639L761.245 936.8ZM755.699 956.671C757.086 959.51 757.086 959.51 757.086 959.51L755.699 956.671ZM750.153 975.124C751.54 977.962 751.54 977.962 751.54 977.962L750.153 975.124ZM748.767 980.801C750.153 983.64 750.153 983.64 750.153 983.64L748.767 980.801ZM747.38 985.059C748.767 987.898 748.767 987.898 748.767 987.898L747.38 985.059ZM745.994 989.318C747.38 993.576 747.38 993.576 747.38 993.576L745.994 989.318ZM744.607 994.995C745.994 997.834 745.994 997.834 745.994 997.834L744.607 994.995ZM743.221 999.253C744.607 1003.51 744.607 1003.51 744.607 1003.51L743.221 999.253ZM741.834 1004.93C743.221 1007.77 743.221 1007.77 743.221 1007.77L741.834 1004.93ZM739.062 1014.87C740.448 1017.71 740.448 1017.71 740.448 1017.71L739.062 1014.87ZM736.289 1024.8C737.675 1027.64 737.675 1027.64 737.675 1027.64L736.289 1024.8ZM727.97 1053.19C729.356 1056.03 729.356 1056.03 729.356 1056.03L727.97 1053.19ZM726.583 1058.87C727.97 1061.71 727.97 1061.71 727.97 1061.71L726.583 1058.87ZM725.197 1063.13C726.583 1067.38 726.583 1067.38 726.583 1067.38L725.197 1063.13ZM723.811 1068.8C725.197 1071.64 725.197 1071.64 725.197 1071.64L723.811 1068.8ZM722.424 1073.06C723.811 1077.32 723.811 1077.32 723.811 1077.32L722.424 1073.06ZM721.038 1078.74C722.424 1081.58 722.424 1081.58 722.424 1081.58L721.038 1078.74ZM719.651 1083C721.038 1087.26 721.038 1087.26 721.038 1087.26L719.651 1083ZM718.265 1088.68C719.651 1091.51 719.651 1091.51 719.651 1091.51L718.265 1088.68ZM705.787 1132.68C707.173 1136.93 707.173 1136.93 707.173 1136.93L705.787 1132.68ZM704.4 1138.35C705.787 1141.19 705.787 1141.19 705.787 1141.19L704.4 1138.35ZM703.014 1144.03C704.4 1146.87 704.4 1146.87 704.4 1146.87L703.014 1144.03ZM701.627 1148.29C703.014 1151.13 703.014 1151.13 703.014 1151.13L701.627 1148.29ZM700.241 1153.97C701.627 1156.81 701.627 1156.81 701.627 1156.81L700.241 1153.97ZM698.854 1158.23C700.241 1162.48 700.241 1162.48 700.241 1162.48L698.854 1158.23Z" fill="#111111"/>
</svg>
